<?xml version="1.0" encoding="utf-8"?>
<!-- Generator: Adobe Illustrator 27.5.0, SVG Export Plug-In . SVG Version: 6.00 Build 0)  -->
<svg version="1.1" xmlns="http://www.w3.org/2000/svg" xmlns:xlink="http://www.w3.org/1999/xlink" x="0px" y="0px"
	 viewBox="0 0 500 500" style="enable-background:new 0 0 500 500;" xml:space="preserve">
<g id="BACKGROUND">
	<rect style="fill:#FCF6DB;" width="500" height="500"/>
</g>
<g id="OBJECTS">
	<g>
		<path style="fill:#E06457;" d="M62.383,344.619c-2.477,7.893-0.896,10.789-0.896,10.789l27.162,6.757l10.822,0.586l1.854-5.909
			l1.854-5.908l-9.216-5.704l-26.151-9.976C67.813,335.254,64.86,336.727,62.383,344.619z"/>
		<g style="opacity:0.51;">
			<path style="fill:#490A17;" d="M102.284,352.922c-2.786-1.306-5.58-2.586-8.398-3.812c-2.825-1.211-5.628-2.465-8.47-3.629
				c-2.835-1.18-5.693-2.301-8.548-3.428c-2.85-1.137-5.725-2.211-8.605-3.269l0.722-0.171c-0.843,0.931-1.494,2.084-2.057,3.271
				c-0.567,1.191-1.015,2.453-1.414,3.73c-0.816,2.545-1.422,5.201-1.846,7.837l-0.514-0.751l9.121,2.146
				c3.045,0.698,6.068,1.487,9.103,2.227c3.03,0.762,6.071,1.478,9.093,2.278c3.025,0.79,6.055,1.555,9.072,2.384
				c-3.074-0.567-6.134-1.198-9.201-1.804c-3.068-0.597-6.119-1.276-9.18-1.911c-3.056-0.657-6.123-1.264-9.17-1.962l-9.152-2.042
				l-0.602-0.134l0.088-0.617c0.197-1.385,0.456-2.727,0.753-4.078c0.299-1.346,0.637-2.687,1.063-4.008
				c0.429-1.319,0.909-2.627,1.528-3.892c0.618-1.261,1.327-2.506,2.332-3.592l0.305-0.33l0.417,0.159
				c2.88,1.096,5.754,2.207,8.602,3.382c2.856,1.155,5.661,2.433,8.468,3.698c2.799,1.284,5.594,2.577,8.336,3.979
				C96.879,349.977,99.618,351.383,102.284,352.922z"/>
		</g>
		<path style="fill:#35081F;" d="M297.581,365.282c-18.272-5.735-35.51,5.466-46.992,1.862c-11.482-3.604-7.584-7.802-19.344-11.493
			c-10.925-3.429-24.248-0.282-32.167,24.943h0l-0.001,0.002c0,0.001,0,0.001-0.001,0.002c0,0-0.001,0.002-0.001,0.003
			c-7.914,25.224,1.221,35.418,12.146,38.847c11.76,3.691,10.96-1.982,22.441,1.622c11.482,3.604,19.228,22.646,37.5,28.381
			c18.908,5.934,35.438-1.776,44.962-32.113c0-0.001,0.001-0.002,0.001-0.003l0.001-0.002c0-0.001,0.001-0.001,0.001-0.001
			c0-0.002,0.001-0.003,0.001-0.004C325.649,386.99,316.489,371.217,297.581,365.282z"/>
		<path style="fill:#E06457;" d="M295.533,371.807c-18.272-5.735-35.51,5.466-46.992,1.862c-11.482-3.604-7.584-7.802-19.344-11.493
			c-10.925-3.429-24.248-0.282-32.167,24.943v0c0,0,0,0.001-0.001,0.002l0,0.001c-0.001,0.002-0.001,0.003-0.001,0.004
			c-7.914,25.223,1.221,35.418,12.146,38.847c11.76,3.691,10.96-1.982,22.442,1.622c11.482,3.604,19.228,22.646,37.5,28.381
			c18.908,5.934,35.438-1.776,44.962-32.113c0-0.001,0.001-0.002,0.001-0.003l0.001-0.002l0.001-0.002c0,0,0.001-0.002,0.001-0.003
			C323.601,393.515,314.441,377.742,295.533,371.807z"/>
		<g>
			<path style="fill:#FFF0D7;" d="M235.904,382.761c3.913,1.204,7.346,3.957,9.34,7.597c2.02,3.628,2.435,8.122,1.137,12.082
				c-1.283,3.976-4.224,7.298-7.882,9.179c-1.835,0.928-3.835,1.538-5.886,1.74c-2.051,0.202-4.143-0.01-6.121-0.609
				c-3.963-1.181-7.452-3.989-9.39-7.694c-1.971-3.68-2.398-8.167-1.108-12.153c1.235-3.998,4.165-7.433,7.899-9.253
				C227.614,381.806,232.005,381.506,235.904,382.761z M235.883,382.827c-1.951-0.586-4.014-0.811-6.034-0.591
				c-2.018,0.22-3.983,0.843-5.746,1.816c-3.534,1.941-6.241,5.245-7.43,9.064c-1.187,3.815-0.84,8.078,1.005,11.638
				c1.824,3.563,5.074,6.391,8.927,7.634c3.834,1.243,8.199,0.95,11.783-0.982c3.61-1.881,6.305-5.298,7.447-9.138
				c1.18-3.841,0.82-8.097-0.976-11.709c-0.895-1.805-2.152-3.439-3.683-4.773C239.643,384.451,237.819,383.459,235.883,382.827z"/>
		</g>
		<path style="fill:#490C28;" d="M284.545,399.073l-8.759,27.907c-0.696,2.217-3.057,3.45-5.273,2.754l-0.081-0.025
			c-2.217-0.696-3.45-3.057-2.754-5.273l8.759-27.908c0.696-2.217,3.057-3.45,5.273-2.754l0.081,0.026
			C284.008,394.495,285.241,396.856,284.545,399.073z"/>
		
			<rect x="267.117" y="407.525" transform="matrix(0.2995 -0.9541 0.9541 0.2995 -199.4532 551.9034)" style="fill:none;" width="17.978" height="8.498"/>
		<polygon style="fill:#490C28;" points="225.219,387.685 220.595,402.418 101.319,363.431 105.057,351.522 		"/>
		
			<rect x="96.009" y="356.199" transform="matrix(0.2995 -0.9541 0.9541 0.2995 -269.1607 347.7809)" style="fill:#FFF0D7;" width="12.482" height="1.967"/>
		<path style="fill:#260516;" d="M235.217,385.047c6.985,2.192,10.871,9.632,8.678,16.617c-2.192,6.985-9.632,10.871-16.617,8.678
			c-6.985-2.192-10.87-9.632-8.678-16.617C220.792,386.741,228.232,382.855,235.217,385.047z"/>
		<polyline style="fill:none;stroke:#FFF0D7;stroke-width:0.6909;stroke-miterlimit:10;" points="278.134,419.501 271.643,417.341 
			101.157,360.694 84.55,355.665 		"/>
		<polyline style="fill:none;stroke:#FFF0D7;stroke-width:0.6909;stroke-miterlimit:10;" points="279.496,415.161 272.97,413.112 
			101.88,358.391 72.973,352.032 		"/>
		<polyline style="fill:none;stroke:#FFF0D7;stroke-width:0.6909;stroke-miterlimit:10;" points="280.788,411.045 274.297,408.884 
			102.683,355.774 75.464,344.097 		"/>
		<polyline style="fill:none;stroke:#FFF0D7;stroke-width:0.6909;stroke-miterlimit:10;" points="282.202,406.54 275.624,404.656 
			103.47,353.264 86.813,348.456 		"/>
		<path style="fill:#490C28;" d="M297.411,403.338c2.428,0.762,3.779,3.348,3.017,5.777l-5.837,18.599
			c-0.762,2.428-3.349,3.779-5.777,3.017l0,0c-2.428-0.762-3.779-3.348-3.017-5.777l5.838-18.6
			C292.397,403.927,294.983,402.576,297.411,403.338L297.411,403.338z"/>
		<g>
			<path style="fill:#FFF0D7;" d="M297.034,404.707c1.209,0.371,2.157,1.451,2.368,2.697c0.116,0.62,0.048,1.268-0.156,1.86
				l-0.541,1.788l-2.148,7.157l-2.194,7.142l-0.548,1.786c-0.163,0.613-0.487,1.244-0.96,1.712c-0.934,0.964-2.419,1.344-3.71,0.938
				c-1.297-0.385-2.327-1.536-2.566-2.88c-0.133-0.661-0.045-1.387,0.165-1.99l0.545-1.787l2.24-7.128
				c0.779-2.366,1.572-4.727,2.397-7.079l0.609-1.766c0.182-0.604,0.515-1.188,0.977-1.628
				C294.424,404.626,295.836,404.303,297.034,404.707z M297.013,404.772c-1.186-0.362-2.536-0.003-3.378,0.88
				c-0.429,0.44-0.695,0.989-0.844,1.585l-0.512,1.797c-0.671,2.4-1.374,4.79-2.09,7.175l-2.247,7.126l-0.577,1.777
				c-0.206,0.571-0.273,1.117-0.178,1.687c0.18,1.124,1.025,2.112,2.123,2.461c1.093,0.36,2.37,0.057,3.19-0.765
				c0.418-0.411,0.693-0.913,0.861-1.501l0.573-1.778l2.293-7.112l2.339-7.097l0.58-1.776c0.212-0.582,0.299-1.206,0.187-1.817
				C299.127,406.194,298.198,405.136,297.013,404.772z"/>
		</g>
		<g style="opacity:0.51;">
			<path style="fill:#490A17;" d="M202.577,380.62c0.82-2.786,2.105-5.435,3.756-7.832c1.659-2.385,3.755-4.517,6.295-5.993
				c2.535-1.477,5.471-2.245,8.409-2.26c2.942-0.01,5.858,0.601,8.614,1.587l0.005,0.002l0.017,0.007
				c5.712,2.443,8.439,8.72,14.078,10.531c2.714,1.02,5.681,1.018,8.604,0.816c2.934-0.197,5.867-0.617,8.798-1.016
				c5.862-0.83,11.73-1.759,17.668-2.274c2.97-0.235,5.956-0.415,8.96-0.254c2.989,0.136,6.047,0.58,8.89,1.675
				c2.853,1.055,5.474,2.673,7.8,4.613c0.559,0.513,1.185,0.955,1.687,1.527l1.549,1.67c0.5,0.57,0.915,1.21,1.375,1.813
				l0.674,0.918l0.569,0.985l1.123,1.979l0.892,2.09l0.445,1.046l0.329,1.086l0.646,2.176c0.34,1.469,0.577,2.965,0.825,4.451
				c0.094,1.502,0.26,3.005,0.292,4.508c0.114,6.033-0.994,11.989-2.643,17.73c-1.551,5.784-4.142,11.317-7.607,16.23
				c-3.466,4.906-7.959,9.172-13.302,12.027c-5.315,2.854-11.473,4.286-17.521,3.67c-6.035-0.59-11.866-3.174-16.309-7.289
				c-4.333-4.142-8.242-8.594-12.279-12.924c-2.029-2.141-4.102-4.245-6.456-5.961c-2.343-1.726-5.025-2.946-7.878-3.546
				c-2.85-0.611-5.805-0.732-8.743-0.679c-2.973,0.1-5.987-0.007-8.928-0.59c-2.931-0.575-5.822-1.642-8.239-3.45
				c-2.408-1.797-4.291-4.304-5.306-7.12c-0.298-0.685-0.44-1.426-0.667-2.135c-0.094-0.36-0.228-0.712-0.288-1.079l-0.173-1.104
				c-0.095-0.738-0.276-1.466-0.299-2.21l-0.102-2.227c-0.064-0.742,0.001-1.484,0.034-2.225l0.109-2.223
				c0.164-1.474,0.377-2.942,0.563-4.412c-0.16,1.474-0.346,2.944-0.484,4.418l-0.07,2.22c-0.02,0.739-0.072,1.479,0.005,2.217
				l0.14,2.213c0.036,0.738,0.229,1.458,0.336,2.187l0.19,1.09c0.065,0.363,0.205,0.707,0.304,1.061
				c0.237,0.696,0.388,1.424,0.693,2.092c1.048,2.753,2.927,5.154,5.293,6.856c2.375,1.712,5.201,2.701,8.077,3.212
				c2.888,0.517,5.837,0.571,8.783,0.451c2.982-0.084,5.991,0.006,8.949,0.609c2.957,0.588,5.799,1.846,8.244,3.613
				c2.46,1.756,4.587,3.88,6.653,6.015c4.088,4.301,8.061,8.728,12.341,12.738c4.293,3.919,9.857,6.373,15.628,6.916
				c5.779,0.569,11.669-0.816,16.769-3.576c5.126-2.76,9.453-6.888,12.8-11.659c3.349-4.781,5.849-10.169,7.356-15.831
				c1.636-5.623,2.738-11.462,2.644-17.31c-0.014-5.831-1.36-11.683-4.308-16.678l-0.538-0.942l-0.641-0.875
				c-0.438-0.574-0.829-1.188-1.303-1.732l-1.47-1.594c-0.474-0.548-1.072-0.967-1.602-1.458c-2.208-1.853-4.7-3.407-7.414-4.419
				c-2.704-1.049-5.579-1.478-8.501-1.623c-2.919-0.169-5.867,0.007-8.806,0.202c-5.883,0.452-11.744,1.319-17.627,2.093
				c-2.945,0.371-5.891,0.764-8.876,0.935c-2.961,0.175-6.079,0.156-8.95-0.954c-1.427-0.529-2.786-1.276-3.968-2.224
				c-1.195-0.933-2.259-1.998-3.292-3.063c-1.034-1.065-2.043-2.137-3.156-3.08c-1.109-0.947-2.321-1.758-3.628-2.391l0.021,0.009
				c-2.689-1.015-5.53-1.661-8.402-1.702c-2.868-0.035-5.744,0.662-8.258,2.067c-2.519,1.405-4.632,3.474-6.322,5.816
				C204.774,375.229,203.445,377.85,202.577,380.62z"/>
		</g>
		<g>
			<g>
				<path style="fill:#490C28;" d="M81.823,332.796c0.724,0.227,1.126,0.998,0.899,1.721l0,0c-0.227,0.724-0.998,1.126-1.722,0.899
					l-5.549-1.742c-0.724-0.227-1.126-0.998-0.899-1.721l0,0c0.227-0.724,0.998-1.126,1.722-0.899L81.823,332.796z"/>
				<path style="fill:#490C28;" d="M76.013,341.595c0.566,0.178,1.169-0.137,1.347-0.703l1.98-6.309
					c0.178-0.566-0.137-1.169-0.703-1.347l0,0c-0.566-0.178-1.169,0.137-1.347,0.703l-1.98,6.309
					C75.132,340.814,75.447,341.417,76.013,341.595L76.013,341.595z"/>
			</g>
			<g>
				<path style="fill:#490C28;" d="M93.912,336.59c0.724,0.227,1.126,0.998,0.899,1.721l0,0c-0.227,0.724-0.998,1.126-1.721,0.899
					l-5.549-1.742c-0.724-0.227-1.126-0.998-0.899-1.722l0,0c0.227-0.724,0.998-1.126,1.721-0.899L93.912,336.59z"/>
				<path style="fill:#490C28;" d="M88.103,345.389c0.566,0.178,1.169-0.137,1.347-0.703l1.98-6.309
					c0.178-0.566-0.137-1.169-0.703-1.347l0,0c-0.566-0.177-1.169,0.137-1.347,0.703l-1.98,6.309
					C87.222,344.608,87.537,345.211,88.103,345.389L88.103,345.389z"/>
			</g>
		</g>
		<g>
			<g>
				<path style="fill:#490C28;" d="M71.581,365.431c0.723,0.227,1.494-0.175,1.722-0.899l0,0c0.227-0.724-0.175-1.494-0.899-1.721
					l-5.55-1.742c-0.724-0.227-1.494,0.175-1.721,0.899l0,0c-0.227,0.724,0.175,1.494,0.899,1.722L71.581,365.431z"/>
				<path style="fill:#490C28;" d="M71.841,354.89c0.566,0.178,0.881,0.781,0.703,1.347l-1.98,6.309
					c-0.178,0.566-0.781,0.881-1.347,0.703l0,0c-0.566-0.178-0.881-0.78-0.703-1.347l1.98-6.309
					C70.671,355.027,71.274,354.712,71.841,354.89L71.841,354.89z"/>
			</g>
			<g>
				<path style="fill:#490C28;" d="M83.67,369.225c0.724,0.227,1.494-0.175,1.722-0.899l0,0c0.227-0.724-0.175-1.494-0.899-1.722
					l-5.55-1.742c-0.724-0.227-1.494,0.176-1.721,0.899l0,0c-0.227,0.724,0.175,1.494,0.899,1.721L83.67,369.225z"/>
				<path style="fill:#490C28;" d="M83.93,358.685c0.566,0.178,0.881,0.781,0.703,1.346l-1.98,6.309
					c-0.178,0.566-0.781,0.881-1.347,0.703l0,0c-0.566-0.178-0.881-0.781-0.703-1.347l1.98-6.309
					C82.761,358.822,83.364,358.507,83.93,358.685L83.93,358.685z"/>
			</g>
		</g>
		<path style="fill:#FFF0D7;" d="M76.754,341.03c0.968,0.304,1.506,1.334,1.202,2.302c-0.304,0.967-1.334,1.506-2.302,1.202
			c-0.968-0.303-1.506-1.334-1.202-2.301C74.756,341.264,75.787,340.726,76.754,341.03z"/>
		<path style="fill:#FFF0D7;" d="M73.379,351.782c0.968,0.304,1.506,1.334,1.202,2.302c-0.304,0.968-1.334,1.506-2.302,1.202
			c-0.967-0.304-1.506-1.334-1.202-2.302C71.381,352.016,72.412,351.478,73.379,351.782z"/>
		<path style="fill:#FFF0D7;" d="M88.103,345.389c0.967,0.304,1.506,1.334,1.202,2.302c-0.304,0.967-1.334,1.506-2.302,1.202
			c-0.968-0.304-1.506-1.334-1.202-2.302C86.105,345.623,87.135,345.085,88.103,345.389z"/>
		<path style="fill:#FFF0D7;" d="M84.956,355.415c0.968,0.304,1.506,1.334,1.202,2.302c-0.304,0.967-1.334,1.506-2.302,1.202
			c-0.967-0.304-1.506-1.334-1.202-2.302C82.958,355.65,83.988,355.112,84.956,355.415z"/>
		<path style="fill:#F9ECE4;" d="M271.482,424.978c0.82,0.075,1.424,0.801,1.349,1.621c-0.075,0.82-0.801,1.424-1.621,1.349
			c-0.82-0.075-1.424-0.801-1.349-1.621C269.936,425.506,270.662,424.903,271.482,424.978z"/>
		<path style="fill:#F9ECE4;" d="M280.787,396.715c0.82,0.075,1.424,0.801,1.349,1.621c-0.075,0.82-0.801,1.424-1.621,1.349
			c-0.82-0.075-1.424-0.801-1.348-1.621C279.241,397.243,279.967,396.639,280.787,396.715z"/>
	</g>
	<g>
		<path style="fill:#968E6E;" d="M100.372,404.803L59.51,209.433c-0.518-2.476,1.069-4.902,3.545-5.42l43.227-9.041l42.737,204.334
			l-43.227,9.041C103.316,408.865,100.89,407.278,100.372,404.803z"/>
		<g>
			<g>
				<path style="fill:#FCF6DB;" d="M64.028,216.712l-1.176-5.622c-0.076-0.362,0.164-0.719,0.535-0.796l44.166-9.238l1.45,6.934
					l-44.166,9.238C64.466,217.305,64.104,217.074,64.028,216.712z"/>
				<path style="fill:#FCF6DB;" d="M65.572,224.094l-1.176-5.622c-0.076-0.362,0.164-0.719,0.535-0.797l44.166-9.238l1.45,6.934
					l-44.166,9.238C66.01,224.687,65.648,224.456,65.572,224.094z"/>
				<path style="fill:#FCF6DB;" d="M67.116,231.476l-1.176-5.622c-0.076-0.362,0.164-0.719,0.535-0.797l44.166-9.238l1.45,6.934
					l-44.166,9.238C67.554,232.068,67.192,231.838,67.116,231.476z"/>
				<path style="fill:#FCF6DB;" d="M68.66,238.857l-1.176-5.622c-0.076-0.362,0.164-0.719,0.535-0.797l44.166-9.238l1.45,6.934
					l-44.166,9.238C69.098,239.451,68.736,239.22,68.66,238.857z"/>
				<path style="fill:#FCF6DB;" d="M70.204,246.24l-1.176-5.622c-0.076-0.362,0.164-0.719,0.535-0.796l44.166-9.238l1.45,6.934
					l-44.166,9.238C70.642,246.833,70.28,246.602,70.204,246.24z"/>
				<path style="fill:#FCF6DB;" d="M71.748,253.622l-1.176-5.622c-0.076-0.362,0.164-0.719,0.535-0.797l44.166-9.238l1.45,6.934
					l-44.166,9.237C72.186,254.214,71.824,253.984,71.748,253.622z"/>
				<path style="fill:#FCF6DB;" d="M73.292,261.004l-1.176-5.622c-0.076-0.362,0.164-0.719,0.535-0.797l44.166-9.238l1.45,6.934
					l-44.166,9.238C73.73,261.596,73.368,261.366,73.292,261.004z"/>
				<path style="fill:#FCF6DB;" d="M74.836,268.385l-1.176-5.622c-0.076-0.362,0.164-0.719,0.535-0.797l44.166-9.238l1.45,6.934
					l-44.166,9.237C75.274,268.978,74.912,268.748,74.836,268.385z"/>
				<path style="fill:#FCF6DB;" d="M76.38,275.767l-1.176-5.622c-0.076-0.362,0.164-0.719,0.535-0.797l44.166-9.238l1.45,6.934
					l-44.166,9.238C76.818,276.361,76.456,276.13,76.38,275.767z"/>
				<path style="fill:#FCF6DB;" d="M77.924,283.15l-1.176-5.622c-0.076-0.362,0.164-0.719,0.535-0.797l44.166-9.238l1.45,6.934
					l-44.166,9.237C78.362,283.742,78,283.512,77.924,283.15z"/>
				<path style="fill:#FCF6DB;" d="M79.468,290.531l-1.176-5.622c-0.076-0.362,0.164-0.719,0.535-0.797l44.166-9.238l1.45,6.934
					l-44.166,9.238C79.906,291.124,79.544,290.894,79.468,290.531z"/>
				<path style="fill:#FCF6DB;" d="M81.012,297.914l-1.176-5.622c-0.076-0.362,0.164-0.719,0.535-0.797l44.166-9.237l1.45,6.934
					l-44.166,9.237C81.45,298.507,81.088,298.276,81.012,297.914z"/>
				<path style="fill:#FCF6DB;" d="M82.556,305.296l-1.176-5.622c-0.076-0.362,0.164-0.719,0.535-0.797l44.166-9.237l1.45,6.934
					l-44.166,9.237C82.994,305.888,82.632,305.658,82.556,305.296z"/>
				<path style="fill:#FCF6DB;" d="M84.1,312.677l-1.176-5.622c-0.076-0.362,0.164-0.719,0.535-0.797l44.166-9.238l1.45,6.934
					l-44.166,9.238C84.538,313.271,84.176,313.04,84.1,312.677z"/>
				<path style="fill:#FCF6DB;" d="M85.644,320.06l-1.176-5.622c-0.076-0.362,0.164-0.719,0.535-0.797l44.166-9.237l1.45,6.934
					l-44.166,9.238C86.082,320.652,85.72,320.422,85.644,320.06z"/>
				<path style="fill:#FCF6DB;" d="M87.188,327.441l-1.176-5.622c-0.076-0.362,0.164-0.719,0.535-0.797l44.166-9.238l1.45,6.934
					l-44.166,9.237C87.626,328.034,87.263,327.804,87.188,327.441z"/>
				<path style="fill:#FCF6DB;" d="M88.732,334.823l-1.176-5.622c-0.076-0.362,0.164-0.719,0.535-0.797l44.166-9.238l1.45,6.934
					l-44.166,9.238C89.17,335.416,88.807,335.186,88.732,334.823z"/>
				<path style="fill:#FCF6DB;" d="M90.276,342.205l-1.176-5.622c-0.076-0.362,0.164-0.719,0.535-0.797l44.166-9.237l1.45,6.934
					l-44.166,9.238C90.714,342.798,90.351,342.568,90.276,342.205z"/>
				<path style="fill:#FCF6DB;" d="M91.82,349.587l-1.176-5.622c-0.076-0.362,0.164-0.719,0.535-0.797l44.166-9.237l1.45,6.934
					l-44.166,9.237C92.258,350.18,91.895,349.95,91.82,349.587z"/>
				<path style="fill:#FCF6DB;" d="M93.364,356.969l-1.176-5.622c-0.076-0.362,0.164-0.719,0.535-0.797l44.166-9.237l1.45,6.934
					l-44.166,9.238C93.802,357.562,93.439,357.332,93.364,356.969z"/>
				<path style="fill:#FCF6DB;" d="M94.908,364.351l-1.176-5.622c-0.076-0.362,0.164-0.719,0.535-0.797l44.166-9.237l1.45,6.934
					l-44.166,9.238C95.346,364.944,94.983,364.714,94.908,364.351z"/>
				<path style="fill:#FCF6DB;" d="M96.452,371.733l-1.176-5.622c-0.076-0.362,0.164-0.719,0.535-0.797l44.166-9.238l1.45,6.934
					l-44.166,9.237C96.89,372.326,96.527,372.096,96.452,371.733z"/>
				<path style="fill:#FCF6DB;" d="M97.995,379.115l-1.176-5.622c-0.076-0.362,0.164-0.719,0.535-0.797l44.166-9.237l1.45,6.934
					l-44.166,9.238C98.434,379.708,98.071,379.478,97.995,379.115z"/>
				<path style="fill:#FCF6DB;" d="M99.539,386.497l-1.176-5.622c-0.076-0.362,0.164-0.719,0.535-0.797l44.166-9.237l1.45,6.934
					l-44.166,9.237C99.978,387.09,99.615,386.86,99.539,386.497z"/>
				<path style="fill:#FCF6DB;" d="M101.083,393.879l-1.176-5.622c-0.076-0.362,0.164-0.719,0.535-0.797l44.166-9.238l1.45,6.934
					l-44.166,9.237C101.522,394.472,101.159,394.242,101.083,393.879z"/>
				<path style="fill:#FCF6DB;" d="M102.627,401.261l-1.176-5.622c-0.076-0.362,0.164-0.719,0.535-0.797l44.166-9.237l1.45,6.934
					l-44.166,9.238C103.066,401.854,102.703,401.624,102.627,401.261z"/>
				<g>
					
						<rect x="78.93" y="210.046" transform="matrix(0.9788 -0.2047 0.2047 0.9788 -41.4772 23.794)" style="fill:#490C28;" width="30.656" height="4.623"/>
					<polygon style="fill:#591235;" points="78.782,213.233 82.279,213.579 109.004,207.989 108.788,206.957 					"/>
					<polygon style="fill:#33081D;" points="79.728,217.758 82.793,216.04 82.279,213.579 78.782,213.233 					"/>
					<polygon style="fill:#591235;" points="109.519,210.45 82.793,216.04 79.728,217.758 109.735,211.482 					"/>
				</g>
				<g>
					
						<rect x="81.847" y="223.99" transform="matrix(0.9788 -0.2047 0.2047 0.9788 -44.2691 24.6857)" style="fill:#490C28;" width="30.656" height="4.624"/>
					<polygon style="fill:#591235;" points="81.698,227.177 85.195,227.523 111.921,221.933 111.705,220.901 					"/>
					<polygon style="fill:#33081D;" points="82.645,231.702 85.71,229.984 85.195,227.523 81.698,227.177 					"/>
					<polygon style="fill:#591235;" points="112.435,224.394 85.71,229.984 82.645,231.702 112.651,225.426 					"/>
				</g>
				<g>
					
						<rect x="83.369" y="231.269" transform="matrix(0.9788 -0.2047 0.2047 0.9788 -45.728 25.1522)" style="fill:#490C28;" width="30.656" height="4.623"/>
					<polygon style="fill:#591235;" points="83.221,234.456 86.717,234.802 113.443,229.213 113.227,228.18 					"/>
					<polygon style="fill:#33081D;" points="84.167,238.982 87.232,237.263 86.717,234.802 83.221,234.456 					"/>
					<polygon style="fill:#591235;" points="113.958,231.673 87.232,237.263 84.167,238.982 114.174,232.706 					"/>
				</g>
				<g>
					
						<rect x="92.633" y="275.561" transform="matrix(0.9788 -0.2047 0.2047 0.9788 -54.5985 27.9863)" style="fill:#490C28;" width="30.656" height="4.623"/>
					<polygon style="fill:#591235;" points="92.484,278.748 95.981,279.094 122.707,273.504 122.491,272.472 					"/>
					<polygon style="fill:#33081D;" points="93.431,283.273 96.496,281.555 95.981,279.094 92.484,278.748 					"/>
					<polygon style="fill:#591235;" points="123.222,275.965 96.496,281.555 93.431,283.273 123.437,276.998 					"/>
				</g>
				<g>
					
						<rect x="94.156" y="282.84" transform="matrix(0.9788 -0.2047 0.2047 0.9788 -56.0568 28.4523)" style="fill:#490C28;" width="30.656" height="4.624"/>
					<polygon style="fill:#591235;" points="94.007,286.027 97.504,286.374 124.229,280.784 124.013,279.751 					"/>
					<polygon style="fill:#33081D;" points="94.954,290.553 98.018,288.834 97.504,286.374 94.007,286.027 					"/>
					<polygon style="fill:#591235;" points="124.744,283.245 98.018,288.834 94.954,290.553 124.96,284.277 					"/>
				</g>
				<g>
					
						<rect x="86.329" y="245.418" transform="matrix(0.9788 -0.2047 0.2047 0.9788 -48.5625 26.0581)" style="fill:#490C28;" width="30.656" height="4.623"/>
					<polygon style="fill:#591235;" points="86.18,248.605 89.677,248.951 116.402,243.361 116.186,242.329 					"/>
					<polygon style="fill:#33081D;" points="87.126,253.13 90.191,251.412 89.677,248.951 86.18,248.605 					"/>
					<polygon style="fill:#591235;" points="116.917,245.822 90.191,251.412 87.126,253.13 117.133,246.855 					"/>
				</g>
				<g>
					
						<rect x="88.012" y="253.465" transform="matrix(0.9788 -0.2047 0.2047 0.9788 -50.179 26.5763)" style="fill:#490C28;" width="30.656" height="4.623"/>
					<polygon style="fill:#591235;" points="87.863,256.652 91.36,256.998 118.085,251.408 117.869,250.376 					"/>
					<polygon style="fill:#33081D;" points="88.809,261.177 91.874,259.458 91.36,256.998 87.863,256.652 					"/>
					<polygon style="fill:#591235;" points="118.6,253.869 91.874,259.458 88.809,261.177 118.816,254.901 					"/>
				</g>
				<g>
					
						<rect x="89.695" y="261.511" transform="matrix(0.9788 -0.2047 0.2047 0.9788 -51.7831 27.0862)" style="fill:#490C28;" width="30.656" height="4.624"/>
					<polygon style="fill:#591235;" points="89.546,264.698 93.043,265.044 119.768,259.455 119.552,258.422 					"/>
					<polygon style="fill:#33081D;" points="90.492,269.224 93.557,267.505 93.043,265.044 89.546,264.698 					"/>
					<polygon style="fill:#591235;" points="120.283,261.915 93.557,267.505 90.492,269.224 120.499,262.948 					"/>
				</g>
				<g>
					
						<rect x="97.072" y="296.784" transform="matrix(0.9788 -0.2047 0.2047 0.9788 -58.85 29.3449)" style="fill:#490C28;" width="30.656" height="4.623"/>
					<polygon style="fill:#591235;" points="96.923,299.971 100.42,300.318 127.146,294.728 126.93,293.695 					"/>
					<polygon style="fill:#33081D;" points="97.87,304.497 100.935,302.778 100.42,300.318 96.923,299.971 					"/>
					<polygon style="fill:#591235;" points="127.66,297.188 100.935,302.778 97.87,304.497 127.876,298.221 					"/>
				</g>
				<g>
					
						<rect x="98.755" y="304.831" transform="matrix(0.9788 -0.2047 0.2047 0.9788 -60.4616 29.8599)" style="fill:#490C28;" width="30.656" height="4.623"/>
					<polygon style="fill:#591235;" points="98.606,308.018 102.103,308.364 128.829,302.774 128.613,301.742 					"/>
					<polygon style="fill:#33081D;" points="99.553,312.543 102.618,310.825 102.103,308.364 98.606,308.018 					"/>
					<polygon style="fill:#591235;" points="129.343,305.235 102.618,310.825 99.553,312.543 129.559,306.267 					"/>
				</g>
				<g>
					
						<rect x="100.438" y="312.878" transform="matrix(0.9788 -0.2047 0.2047 0.9788 -62.0793 30.3786)" style="fill:#490C28;" width="30.656" height="4.623"/>
					<polygon style="fill:#591235;" points="100.289,316.065 103.786,316.411 130.512,310.821 130.296,309.789 					"/>
					<polygon style="fill:#33081D;" points="101.236,320.59 104.301,318.871 103.786,316.411 100.289,316.065 					"/>
					<polygon style="fill:#591235;" points="131.026,313.282 104.301,318.871 101.236,320.59 131.242,314.314 					"/>
				</g>
				<g>
					
						<rect x="103.436" y="327.213" transform="matrix(0.9788 -0.2047 0.2047 0.9788 -64.9431 31.2914)" style="fill:#490C28;" width="30.656" height="4.624"/>
					<polygon style="fill:#591235;" points="103.288,330.4 106.784,330.746 133.51,325.156 133.294,324.124 					"/>
					<polygon style="fill:#33081D;" points="104.234,334.925 107.299,333.207 106.784,330.746 103.288,330.4 					"/>
					<polygon style="fill:#591235;" points="134.025,327.617 107.299,333.207 104.234,334.925 134.241,328.649 					"/>
				</g>
				<g>
					
						<rect x="104.959" y="334.492" transform="matrix(0.9788 -0.2047 0.2047 0.9788 -66.4025 31.7581)" style="fill:#490C28;" width="30.656" height="4.623"/>
					<polygon style="fill:#591235;" points="104.81,337.679 108.307,338.025 135.032,332.436 134.817,331.403 					"/>
					<polygon style="fill:#33081D;" points="105.757,342.205 108.822,340.486 108.307,338.025 104.81,337.679 					"/>
					<polygon style="fill:#591235;" points="135.547,334.896 108.822,340.486 105.757,342.205 135.763,335.929 					"/>
				</g>
				<g>
					
						<rect x="114.179" y="378.577" transform="matrix(0.9788 -0.2047 0.2047 0.9788 -75.2296 34.5779)" style="fill:#490C28;" width="30.656" height="4.624"/>
					<polygon style="fill:#591235;" points="114.031,381.763 117.527,382.11 144.253,376.52 144.037,375.488 					"/>
					<polygon style="fill:#33081D;" points="114.977,386.289 118.042,384.57 117.527,382.11 114.031,381.763 					"/>
					<polygon style="fill:#591235;" points="144.768,378.981 118.042,384.57 114.977,386.289 144.983,380.013 					"/>
				</g>
				<g>
					
						<rect x="115.702" y="385.856" transform="matrix(0.9788 -0.2047 0.2047 0.9788 -76.696 35.0487)" style="fill:#490C28;" width="30.656" height="4.624"/>
					<polygon style="fill:#591235;" points="115.553,389.043 119.05,389.389 145.775,383.799 145.559,382.767 					"/>
					<polygon style="fill:#33081D;" points="116.5,393.569 119.564,391.85 119.05,389.389 115.553,389.043 					"/>
					<polygon style="fill:#591235;" points="146.29,386.26 119.564,391.85 116.5,393.569 146.506,387.293 					"/>
				</g>
				<g>
					
						<rect x="107.875" y="348.436" transform="matrix(0.9788 -0.2047 0.2047 0.9788 -69.1929 32.6491)" style="fill:#490C28;" width="30.656" height="4.624"/>
					<polygon style="fill:#591235;" points="107.726,351.623 111.223,351.969 137.949,346.379 137.733,345.347 					"/>
					<polygon style="fill:#33081D;" points="108.673,356.148 111.738,354.43 111.223,351.969 107.726,351.623 					"/>
					<polygon style="fill:#591235;" points="138.464,348.84 111.738,354.43 108.673,356.148 138.679,349.872 					"/>
				</g>
				<g>
					
						<rect x="109.558" y="356.483" transform="matrix(0.9788 -0.2047 0.2047 0.9788 -70.8045 33.164)" style="fill:#490C28;" width="30.656" height="4.624"/>
					<polygon style="fill:#591235;" points="109.409,359.669 112.906,360.016 139.632,354.426 139.416,353.394 					"/>
					<polygon style="fill:#33081D;" points="110.356,364.195 113.421,362.476 112.906,360.016 109.409,359.669 					"/>
					<polygon style="fill:#591235;" points="140.147,356.887 113.421,362.476 110.356,364.195 140.362,357.919 					"/>
				</g>
				<g>
					
						<rect x="111.241" y="364.529" transform="matrix(0.9788 -0.2047 0.2047 0.9788 -72.4241 33.6837)" style="fill:#490C28;" width="30.656" height="4.624"/>
					<polygon style="fill:#591235;" points="111.092,367.716 114.589,368.062 141.315,362.473 141.099,361.44 					"/>
					<polygon style="fill:#33081D;" points="112.039,372.242 115.104,370.523 114.589,368.062 111.092,367.716 					"/>
					<polygon style="fill:#591235;" points="141.829,364.933 115.104,370.523 112.039,372.242 142.045,365.966 					"/>
				</g>
			</g>
		</g>
		<path style="fill:#E06457;" d="M147.797,399.562l-42.737-204.335l4.549-0.951c1.596-0.334,3.16,0.689,3.494,2.285l41.529,198.557
			c0.334,1.596-0.689,3.16-2.285,3.494L147.797,399.562z"/>
	</g>
	<g>
		<g>
			<path style="fill:#E06457;" d="M440.416,307.755l-28.57-18.141c-4.49-2.851-20.294,13.992-35.298,37.621
				c-15.004,23.629-23.528,45.095-19.037,47.947l28.57,18.141L440.416,307.755z"/>
			<polygon style="fill:#983533;" points="438.81,306.735 400.654,295.923 421.002,323.181 			"/>
			<polygon style="fill:#983533;" points="418.068,326.863 376.549,327.235 392.971,366.567 			"/>
			<polygon style="fill:#983533;" points="391.284,370.719 357.744,364.537 384.474,392.303 			"/>
			<path style="fill:#490C28;" d="M386.081,393.323c-4.49-2.851,4.033-24.318,19.037-47.947
				c15.004-23.629,30.808-40.473,35.298-37.621c4.49,2.851-4.033,24.318-19.037,47.947
				C406.375,379.33,390.571,396.174,386.081,393.323z"/>
			<path style="fill:#EBAE59;" d="M418.166,353.661c13.859-21.825,21.732-41.653,17.584-44.287
				c-0.198-0.126-0.427-0.197-0.671-0.241c-7.046,4.666-18.727,18.552-29.961,36.243c-11.234,17.691-18.834,34.169-20.06,42.53
				c0.144,0.202,0.306,0.379,0.504,0.505C389.71,391.044,404.307,375.487,418.166,353.661z"/>
			<path style="opacity:0.46;fill:#FFFFFF;" d="M406.349,350.849c4.196,2.665,12.675-2.792,20.887-12.743
				c7.94-15.003,11.639-26.747,8.514-28.731c-0.198-0.126-0.427-0.197-0.671-0.241c-7.046,4.666-18.727,18.552-29.961,36.243
				c-0.345,0.543-0.687,1.086-1.025,1.627C404.431,348.778,405.172,350.102,406.349,350.849z"/>
			<path style="fill:#490C28;" d="M389.834,308.935c-0.809-0.514-1.048-1.585-0.535-2.394l0,0c0.514-0.809,1.586-1.048,2.394-0.535
				l31.14,19.774c0.809,0.514,1.048,1.585,0.534,2.394l0,0c-0.513,0.809-1.585,1.048-2.394,0.534L389.834,308.935z"/>
			<path style="fill:#490C28;" d="M362.436,352.081c-0.809-0.514-1.048-1.585-0.535-2.394l0,0c0.514-0.809,1.585-1.048,2.394-0.535
				l31.14,19.774c0.809,0.513,1.048,1.585,0.535,2.394l0,0c-0.514,0.809-1.586,1.048-2.394,0.534L362.436,352.081z"/>
			<g>
				<path style="fill:#E06457;" d="M459.205,320.634l0.016,0.026c0.444,0.718,0.222,1.661-0.496,2.105l-37.282,23.055l-1.625-2.628
					l37.282-23.055C457.818,319.694,458.761,319.916,459.205,320.634z"/>
				<path style="opacity:0.56;fill:#61241E;" d="M426.82,342.495c-0.083-0.522-0.26-1.022-0.544-1.48
					c-0.283-0.458-0.652-0.84-1.081-1.148l-5.377,3.325l1.625,2.628L426.82,342.495z"/>
				<path style="fill:#490C28;" d="M414.087,342.592c3.118-1.928,6.84-1.561,8.313,0.821c1.473,2.382,0.139,5.876-2.979,7.804
					c-3.118,1.928-6.84,1.56-8.313-0.821C409.635,348.014,410.969,344.52,414.087,342.592z"/>
			</g>
		</g>
		<g>
			<path style="fill:#FCF6DB;" d="M418.068,326.863c-3.458,0.202-6.918,0.314-10.377,0.411c-3.459,0.099-6.919,0.124-10.379,0.19
				c-3.46-0.002-6.92,0.033-10.381-0.003c-3.46-0.036-6.921-0.085-10.382-0.227c3.458-0.204,6.917-0.315,10.377-0.412
				c3.459-0.097,6.919-0.125,10.379-0.188c3.46,0.004,6.92-0.034,10.381,0.004C411.146,326.673,414.606,326.723,418.068,326.863z"/>
		</g>
		<g>
			<path style="fill:#FCF6DB;" d="M391.284,370.719c-2.826-0.347-5.636-0.783-8.443-1.232c-2.807-0.448-5.601-0.969-8.402-1.45
				c-2.789-0.547-5.585-1.059-8.368-1.639c-2.783-0.581-5.563-1.175-8.327-1.86c2.826,0.345,5.636,0.782,8.443,1.231
				c2.807,0.45,5.601,0.968,8.402,1.452c2.789,0.549,5.585,1.058,8.367,1.641C385.74,369.441,388.52,370.035,391.284,370.719z"/>
		</g>
		<g>
			<path style="fill:#FCF6DB;" d="M438.81,306.735c-3.226-0.736-6.428-1.56-9.626-2.397c-3.198-0.835-6.376-1.742-9.565-2.61
				c-3.171-0.932-6.351-1.83-9.513-2.795c-3.161-0.965-6.319-1.943-9.452-3.01c3.227,0.735,6.428,1.559,9.626,2.395
				c3.198,0.837,6.376,1.742,9.565,2.611c3.17,0.934,6.352,1.829,9.513,2.796C432.519,304.691,435.677,305.669,438.81,306.735z"/>
		</g>
	</g>
	<g>
		<g>
			<g>
				<g>
					<path style="fill:#E06457;" d="M149.29,148.038l16.001-1.156l-4.99-69.067L144.3,78.972c-2.765,0.2-4.845,2.604-4.645,5.369
						l4.266,59.052C144.121,146.158,146.525,148.238,149.29,148.038z"/>
					<g>
						
							<rect x="143.487" y="83.369" transform="matrix(0.9974 -0.0721 0.0721 0.9974 -5.7726 11.188)" style="fill:#FCF6DB;" width="17.353" height="4.452"/>
						
							<rect x="143.923" y="89.405" transform="matrix(0.9974 -0.0721 0.0721 0.9974 -6.2065 11.2351)" style="fill:#FCF6DB;" width="17.353" height="4.452"/>
						
							<rect x="144.359" y="95.441" transform="matrix(0.9974 -0.0721 0.0721 0.9974 -6.6403 11.2822)" style="fill:#FCF6DB;" width="17.353" height="4.452"/>
						
							<rect x="144.795" y="101.477" transform="matrix(0.9974 -0.0721 0.0721 0.9974 -7.0742 11.3294)" style="fill:#FCF6DB;" width="17.353" height="4.452"/>
						
							<rect x="145.232" y="107.514" transform="matrix(0.9974 -0.0721 0.0721 0.9974 -7.508 11.3764)" style="fill:#FCF6DB;" width="17.353" height="4.451"/>
						
							<rect x="145.668" y="113.55" transform="matrix(0.9974 -0.0721 0.0721 0.9974 -7.9419 11.4236)" style="fill:#FCF6DB;" width="17.353" height="4.452"/>
						
							<rect x="146.104" y="119.586" transform="matrix(0.9974 -0.0721 0.0721 0.9974 -8.3757 11.4707)" style="fill:#FCF6DB;" width="17.353" height="4.452"/>
						
							<rect x="146.54" y="125.622" transform="matrix(0.9974 -0.0721 0.0721 0.9974 -8.8096 11.5179)" style="fill:#FCF6DB;" width="17.353" height="4.452"/>
						
							<rect x="146.976" y="131.658" transform="matrix(0.9974 -0.0721 0.0721 0.9974 -9.2435 11.565)" style="fill:#FCF6DB;" width="17.353" height="4.451"/>
						
							<rect x="147.412" y="137.694" transform="matrix(0.9974 -0.0721 0.0721 0.9974 -9.6773 11.612)" style="fill:#FCF6DB;" width="17.353" height="4.452"/>
					</g>
					
						<rect x="149.381" y="85.985" transform="matrix(0.9974 -0.0721 0.0721 0.9974 -5.9627 11.415)" style="fill:#490C28;" width="11.665" height="4.714"/>
					
						<rect x="150.254" y="98.071" transform="matrix(0.9974 -0.0721 0.0721 0.9974 -6.8314 11.5093)" style="fill:#490C28;" width="11.665" height="4.714"/>
					
						<rect x="151.128" y="110.158" transform="matrix(0.9974 -0.0721 0.0721 0.9974 -7.7001 11.6036)" style="fill:#490C28;" width="11.665" height="4.714"/>
					
						<rect x="152.001" y="122.245" transform="matrix(0.9974 -0.0721 0.0721 0.9974 -8.5699 11.6995)" style="fill:#490C28;" width="11.665" height="4.714"/>
					
						<rect x="152.874" y="134.331" transform="matrix(0.9974 -0.0721 0.0721 0.9974 -9.4377 11.7924)" style="fill:#490C28;" width="11.665" height="4.714"/>
					<polygon style="opacity:0.4;fill:#490C28;" points="155.454,78.166 160.568,147.223 165.291,146.882 160.3,77.815 					"/>
				</g>
				<path style="fill:#E06457;" d="M266.155,156.936l-18.034-2.699c-3.631-0.544-6.134-3.928-5.591-7.559l9.892-66.095
					c0.543-3.631,3.928-6.134,7.559-5.591l18.034,2.699c3.631,0.543,6.135,3.928,5.591,7.559l-9.892,66.095
					C273.171,154.977,269.786,157.48,266.155,156.936z"/>
				<g>
					<path style="fill:#FCF6DB;" d="M260.563,86.967c-0.145,0.967-1.046,1.633-2.012,1.488c-0.967-0.145-1.633-1.046-1.488-2.012
						c0.145-0.967,1.046-1.633,2.012-1.488C260.041,85.1,260.708,86.001,260.563,86.967z"/>
					<path style="fill:#FCF6DB;" d="M259.549,93.74c-0.145,0.967-1.046,1.633-2.012,1.488c-0.967-0.145-1.633-1.046-1.488-2.012
						c0.145-0.967,1.046-1.633,2.012-1.488C259.028,91.873,259.694,92.774,259.549,93.74z"/>
					<path style="fill:#FCF6DB;" d="M258.536,100.514c-0.145,0.967-1.046,1.633-2.012,1.488c-0.967-0.145-1.633-1.046-1.488-2.012
						c0.145-0.967,1.046-1.633,2.012-1.488C258.014,98.646,258.68,99.547,258.536,100.514z"/>
					<path style="fill:#FCF6DB;" d="M257.522,107.287c-0.145,0.967-1.046,1.633-2.012,1.488s-1.633-1.046-1.488-2.012
						c0.145-0.967,1.046-1.633,2.012-1.488C257,105.419,257.667,106.32,257.522,107.287z"/>
					<path style="fill:#FCF6DB;" d="M256.508,114.06c-0.145,0.967-1.046,1.633-2.012,1.488c-0.967-0.145-1.633-1.046-1.488-2.012
						c0.145-0.967,1.046-1.633,2.012-1.488C255.987,112.192,256.653,113.093,256.508,114.06z"/>
					<path style="fill:#FCF6DB;" d="M255.495,120.833c-0.145,0.967-1.046,1.633-2.012,1.488c-0.967-0.145-1.633-1.046-1.488-2.012
						c0.145-0.967,1.046-1.633,2.012-1.488C254.973,118.965,255.639,119.866,255.495,120.833z"/>
					<path style="fill:#FCF6DB;" d="M254.481,127.606c-0.145,0.967-1.046,1.633-2.012,1.489s-1.633-1.046-1.488-2.012
						c0.145-0.967,1.046-1.633,2.012-1.488C253.959,125.739,254.626,126.639,254.481,127.606z"/>
					<path style="fill:#FCF6DB;" d="M253.467,134.379c-0.145,0.967-1.046,1.633-2.012,1.488c-0.967-0.145-1.633-1.046-1.488-2.012
						c0.145-0.967,1.046-1.633,2.012-1.488S253.612,133.413,253.467,134.379z"/>
					<path style="fill:#FCF6DB;" d="M266.96,91.387c-0.145,0.967-1.046,1.633-2.012,1.489c-0.967-0.145-1.633-1.046-1.488-2.012
						c0.145-0.967,1.046-1.633,2.012-1.488C266.438,89.519,267.104,90.42,266.96,91.387z"/>
					<path style="fill:#FCF6DB;" d="M265.946,98.16c-0.145,0.967-1.046,1.633-2.012,1.488c-0.967-0.145-1.633-1.046-1.488-2.012
						c0.145-0.967,1.046-1.633,2.012-1.488C265.424,96.293,266.09,97.193,265.946,98.16z"/>
					<path style="fill:#FCF6DB;" d="M264.932,104.933c-0.145,0.967-1.046,1.633-2.012,1.488c-0.967-0.145-1.633-1.046-1.488-2.012
						c0.145-0.967,1.046-1.633,2.012-1.488C264.41,103.066,265.077,103.967,264.932,104.933z"/>
					<path style="fill:#FCF6DB;" d="M263.918,111.706c-0.145,0.967-1.046,1.633-2.012,1.488c-0.967-0.145-1.633-1.046-1.488-2.012
						c0.145-0.967,1.046-1.633,2.012-1.489S264.063,110.74,263.918,111.706z"/>
					<path style="fill:#FCF6DB;" d="M262.905,118.48c-0.145,0.967-1.046,1.633-2.012,1.488c-0.967-0.145-1.633-1.046-1.488-2.012
						c0.145-0.967,1.046-1.633,2.012-1.489C262.383,116.612,263.049,117.513,262.905,118.48z"/>
					<path style="fill:#FCF6DB;" d="M261.891,125.253c-0.145,0.967-1.046,1.633-2.012,1.488c-0.967-0.145-1.633-1.046-1.488-2.012
						c0.145-0.967,1.046-1.633,2.012-1.488S262.036,124.286,261.891,125.253z"/>
					<path style="fill:#FCF6DB;" d="M260.877,132.026c-0.145,0.967-1.046,1.633-2.012,1.488s-1.633-1.046-1.488-2.012
						c0.145-0.967,1.046-1.633,2.012-1.488C260.356,130.158,261.022,131.059,260.877,132.026z"/>
					<path style="fill:#FCF6DB;" d="M273.02,95.757c-0.145,0.967-1.046,1.633-2.012,1.488c-0.967-0.145-1.633-1.046-1.488-2.012
						c0.145-0.967,1.046-1.633,2.012-1.488C272.498,93.889,273.164,94.79,273.02,95.757z"/>
					<path style="fill:#FCF6DB;" d="M272.006,102.53c-0.145,0.967-1.046,1.633-2.012,1.488c-0.967-0.145-1.633-1.046-1.488-2.012
						c0.145-0.967,1.046-1.633,2.012-1.488C271.484,100.662,272.151,101.563,272.006,102.53z"/>
					<path style="fill:#FCF6DB;" d="M270.992,109.303c-0.145,0.967-1.046,1.633-2.012,1.489c-0.967-0.145-1.633-1.046-1.488-2.012
						c0.145-0.967,1.046-1.633,2.012-1.488C270.471,107.435,271.137,108.336,270.992,109.303z"/>
					<path style="fill:#FCF6DB;" d="M269.979,116.076c-0.145,0.967-1.046,1.633-2.012,1.488c-0.967-0.145-1.633-1.046-1.488-2.012
						c0.145-0.967,1.046-1.633,2.012-1.488C269.457,114.208,270.123,115.109,269.979,116.076z"/>
					<path style="fill:#FCF6DB;" d="M268.965,122.849c-0.145,0.967-1.046,1.633-2.012,1.488s-1.633-1.046-1.488-2.012
						c0.145-0.967,1.046-1.633,2.012-1.488C268.443,120.981,269.11,121.882,268.965,122.849z"/>
					<path style="fill:#FCF6DB;" d="M267.951,129.622c-0.145,0.967-1.046,1.633-2.012,1.488c-0.967-0.145-1.633-1.046-1.488-2.012
						c0.145-0.967,1.046-1.633,2.012-1.488C267.429,127.755,268.096,128.656,267.951,129.622z"/>
					<path style="fill:#FCF6DB;" d="M266.937,136.395c-0.145,0.967-1.046,1.633-2.012,1.488c-0.967-0.145-1.633-1.046-1.488-2.012
						c0.145-0.967,1.046-1.633,2.012-1.488C266.416,134.528,267.082,135.429,266.937,136.395z"/>
					<path style="fill:#FCF6DB;" d="M259.864,138.799c-0.145,0.967-1.046,1.633-2.012,1.488s-1.633-1.046-1.488-2.012
						s1.046-1.633,2.012-1.488S260.008,137.832,259.864,138.799z"/>
					<path style="fill:#FCF6DB;" d="M252.454,141.152c-0.145,0.967-1.046,1.633-2.012,1.488c-0.967-0.145-1.633-1.046-1.488-2.012
						c0.145-0.967,1.046-1.633,2.012-1.488C251.932,139.285,252.598,140.186,252.454,141.152z"/>
				</g>
				<path style="opacity:0.42;fill:#FFFFFF;" d="M278.015,77.691l-13.113-1.963l-0.212,1.415c-0.229,1.53,0.826,2.955,2.355,3.184
					l10.196,1.526c1.368,0.205,2.312,1.48,2.107,2.849l-9.818,65.598c-0.208,1.394-1.507,2.354-2.901,2.146l-15.562-2.329
					c-2.29-0.343-4.425,1.236-4.768,3.526l-0.006,0.042c0.566,0.264,1.177,0.455,1.826,0.553l18.034,2.699
					c3.631,0.543,7.016-1.96,7.559-5.591l9.892-66.095C284.15,81.619,281.647,78.234,278.015,77.691z"/>
				<polygon style="fill:#F4C389;" points="252.167,82.284 248.933,73.786 237.063,146.247 243.131,142.661 				"/>
				<polygon style="fill:#D3964C;" points="237.063,146.247 233.106,138.537 241.02,79.433 248.933,73.786 				"/>
				<polygon style="fill:#F4C389;" points="241.02,79.433 236.074,70.323 228.408,146.247 233.106,138.537 				"/>
				<polygon style="fill:#D3964C;" points="236.074,70.323 228.408,79.433 225.687,138.537 228.408,146.247 				"/>
				<polygon style="fill:#F4C389;" points="228.408,79.433 222.719,68.098 220.988,146.247 225.687,138.537 				"/>
				<polygon style="fill:#D3964C;" points="220.988,146.247 216.537,140.307 217.279,79.433 222.719,68.098 				"/>
				<polygon style="fill:#F4C389;" points="217.279,79.433 210.849,68.098 210.849,146.247 216.537,140.307 				"/>
				<polygon style="fill:#D3964C;" points="210.849,68.098 205.408,77.743 206.892,140.307 210.849,146.247 				"/>
				<path style="fill:#E06457;" d="M194.378,150.957l-23.456,1.774c-3.329,0.252-6.232-2.243-6.483-5.572l-5.466-72.284
					c-0.252-3.329,2.243-6.231,5.572-6.483L188,66.618c3.329-0.252,6.232,2.243,6.483,5.572l5.466,72.284
					C200.201,147.803,197.707,150.705,194.378,150.957z"/>
				<polygon style="fill:#F4C389;" points="205.408,77.743 199.967,68.098 204.419,146.247 206.892,140.307 				"/>
				<polygon style="fill:#D3964C;" points="199.967,68.098 194.751,75.728 199.679,140.891 204.419,146.247 				"/>
				<path style="opacity:0.42;fill:#FFFFFF;" d="M174.67,71.246l9.801-0.56c3.545-0.202,6.616,2.431,6.958,5.965l1.618,16.751
					c0.28,2.897-4.042,3.524-4.525,0.654c-0.114-0.677-0.178-1.455-0.178-2.347c0-8.03-5.688-16.016-11.623-15.98l-1.937,0.012
					c-1.745,0.011-2.823-1.899-1.913-3.387l0.027-0.045C173.278,71.685,173.94,71.288,174.67,71.246z"/>
				<path style="fill:#490C28;" d="M163.742,68.513c-2.917,0.618-5.001,3.307-4.77,6.362l5.466,72.284
					c0.252,3.329,3.154,5.823,6.483,5.572l23.456-1.774c3.055-0.231,5.401-2.696,5.572-5.673l-0.001-0.81l-25.219,1.481
					c-2.762,0.162-5.146-1.917-5.359-4.676L163.742,68.513z"/>
				<g>
					<polygon style="fill:#FCF6DB;" points="210.849,68.098 211.036,77.866 211.143,87.635 211.233,107.172 211.144,126.71 
						211.037,136.478 210.849,146.247 210.66,136.478 210.553,126.71 210.464,107.172 210.554,87.635 210.662,77.866 					"/>
				</g>
				<g>
					<polygon style="fill:#FCF6DB;" points="222.719,68.098 222.69,77.87 222.581,87.641 222.238,107.181 221.717,126.716 
						221.393,136.483 220.988,146.247 221.016,136.474 221.125,126.703 221.47,107.164 221.992,87.628 222.316,77.862 					"/>
				</g>
				<g>
					<polygon style="fill:#FCF6DB;" points="236.074,70.323 235.302,79.719 234.451,89.107 232.623,107.87 230.619,126.615 
						229.553,135.982 228.408,145.339 229.179,135.943 230.03,126.555 231.859,107.792 233.865,89.047 234.93,79.681 					"/>
				</g>
				<g>
					<polygon style="fill:#FCF6DB;" points="248.933,73.786 247.634,82.874 246.256,91.949 243.377,110.078 240.323,128.18 
						238.733,137.22 237.063,146.247 238.361,137.159 239.739,128.084 242.619,109.954 245.675,91.853 247.265,82.813 					"/>
				</g>
				<g>
					<polygon style="fill:#FCF6DB;" points="199.967,68.098 200.71,77.856 201.374,87.618 202.576,107.15 203.601,126.693 
						204.05,136.468 204.419,146.247 203.674,136.489 203.01,126.727 201.809,107.194 200.786,87.652 200.337,77.877 					"/>
				</g>
			</g>
		</g>
		<g>
			<path style="fill:#FCF6DB;" d="M170.48,89.782c0.868-1.557,1.98-3.013,3.459-4.17c0.741-0.573,1.604-1.055,2.599-1.298
				c0.989-0.253,2.124-0.198,3.115,0.21c0.994,0.4,1.823,1.058,2.504,1.777c0.35,0.38,0.644,0.696,0.962,1.173
				c0.316,0.456,0.537,0.949,0.731,1.443c0.685,2.003,0.633,3.965,0.499,5.827c-0.811,7.425-3.493,14.062-5.407,20.787
				c-1.009,3.321-1.954,6.702-2.165,9.908c-0.114,1.579,0.055,3.119,0.684,4.079c0.59,0.938,1.798,1.47,3.357,1.597
				c1.645,0.13,3.35,0.1,4.909-0.187c1.558-0.286,3-0.917,3.808-2.113c0.86-1.174,1.003-2.902,0.77-4.575
				c-0.24-1.687-0.771-3.388-1.501-5.007c1.08,1.42,1.969,3.01,2.533,4.774c0.548,1.734,0.771,3.817-0.184,5.752
				c-0.482,0.943-1.245,1.735-2.095,2.317c-0.854,0.584-1.786,0.977-2.718,1.272c-1.885,0.557-3.752,0.706-5.64,0.729
				c-1.001-0.003-2.066-0.117-3.137-0.522c-1.058-0.407-2.11-1.152-2.806-2.134c-0.703-0.975-1.09-2.066-1.3-3.099
				c-0.209-1.039-0.257-2.045-0.244-3.021c0.161-3.886,1.156-7.387,2.129-10.846c1.063-3.431,2.22-6.781,3.316-10.116
				c1.133-3.315,2.152-6.659,2.754-9.955c0.27-1.636,0.377-3.299,0.039-4.709c-0.094-0.341-0.197-0.68-0.356-0.972
				c-0.135-0.282-0.397-0.662-0.615-0.959c-0.462-0.625-1.003-1.156-1.621-1.497c-1.203-0.774-2.859-0.523-4.338,0.269
				c-0.744,0.388-1.458,0.884-2.125,1.444C171.717,88.509,171.069,89.115,170.48,89.782z"/>
		</g>
	</g>
	<g>
		<path style="fill:none;stroke:#490C28;stroke-width:0.8581;stroke-miterlimit:10;" d="M362.097,120.918
			c0,0,23.549,28.582,32.645,9.172c9.096-19.41-31.181-19.465-9.053,13.534c22.128,32.999,74.811,116.652,11.803,123.715"/>
		<g>
			<g>
				<defs>
					<path id="SVGID_1_" d="M317.044,67.477c6.05,4.785,7.075,13.569,2.29,19.618c-4.785,6.05-13.568,7.075-19.618,2.29
						c-6.05-4.785-7.075-13.569-2.29-19.618C302.211,63.717,310.994,62.692,317.044,67.477z"/>
				</defs>
				<use xlink:href="#SVGID_1_"  style="overflow:visible;fill:#490C28;"/>
				<clipPath id="SVGID_00000047030561767482401260000014848380816468530354_">
					<use xlink:href="#SVGID_1_"  style="overflow:visible;"/>
				</clipPath>
				<g style="clip-path:url(#SVGID_00000047030561767482401260000014848380816468530354_);">
					<g>
						<path style="fill:#490C28;stroke:#DD5136;stroke-width:0.1226;stroke-miterlimit:10;" d="M304.183,63.312
							c0,0,0.289,18.429,4.451,32.353"/>
						<path style="fill:#490C28;stroke:#DD5136;stroke-width:0.1226;stroke-miterlimit:10;" d="M302.049,64.443
							c0,0-0.492,17.057,3.701,29.25"/>
						<path style="fill:#490C28;stroke:#DD5136;stroke-width:0.1226;stroke-miterlimit:10;" d="M299.797,66.378
							c0,0-0.826,15.141,3.578,27.192"/>
						<path style="fill:#490C28;stroke:#DD5136;stroke-width:0.1226;stroke-miterlimit:10;" d="M297.989,68.664
							c0,0-1.405,11.173,3.036,23.047"/>
						<path style="fill:#490C28;stroke:#DD5136;stroke-width:0.1226;stroke-miterlimit:10;" d="M296.074,70.04
							c0,0-0.765,10.234,3.274,22.616"/>
						<path style="fill:#490C28;stroke:#DD5136;stroke-width:0.1226;stroke-miterlimit:10;" d="M294.834,73.566
							c0,0-0.12,7.2,1.791,14.355"/>
						<path style="fill:#490C28;stroke:#DD5136;stroke-width:0.1226;stroke-miterlimit:10;" d="M306.622,63.621
							c0,0,1.61,19.717,3.791,31.49"/>
						<path style="fill:#490C28;stroke:#DD5136;stroke-width:0.1226;stroke-miterlimit:10;" d="M308.738,63.643
							c0,0,3.455,21.039,3.241,31.055"/>
						<path style="fill:#490C28;stroke:#DD5136;stroke-width:0.1226;stroke-miterlimit:10;" d="M310.928,63.311
							c0,0,4.099,17.006,3.278,31.704"/>
						<path style="fill:#490C28;stroke:#DD5136;stroke-width:0.1226;stroke-miterlimit:10;" d="M313.71,64.84
							c0,0,3.762,14.038,2.788,26.929"/>
						<path style="fill:#490C28;stroke:#DD5136;stroke-width:0.1226;stroke-miterlimit:10;" d="M315.914,65.534
							c0,0,3.813,12.581,2.342,24.012"/>
						<path style="fill:#490C28;stroke:#DD5136;stroke-width:0.1226;stroke-miterlimit:10;" d="M318.43,67.661
							c0,0,2.583,11.265,1.871,19.648"/>
						<path style="fill:#490C28;stroke:#DD5136;stroke-width:0.1226;stroke-miterlimit:10;" d="M320.684,69.857
							c0,0,1.681,8.142,1.322,14.947"/>
					</g>
					<g>
						<path style="fill:#490C28;stroke:#DD5136;stroke-width:0.1226;stroke-miterlimit:10;" d="M292.701,77.83
							c0,0,18-3.964,32.508-3.121"/>
						<path style="fill:#490C28;stroke:#DD5136;stroke-width:0.1226;stroke-miterlimit:10;" d="M293.31,75.493
							c0,0,16.485-4.408,29.316-3.136"/>
						<path style="fill:#490C28;stroke:#DD5136;stroke-width:0.1226;stroke-miterlimit:10;" d="M294.674,72.855
							c0,0,14.543-4.292,27.285-2.782"/>
						<path style="fill:#490C28;stroke:#DD5136;stroke-width:0.1226;stroke-miterlimit:10;" d="M296.482,70.569
							c0,0,10.549-3.94,23.127-2.354"/>
						<path style="fill:#490C28;stroke:#DD5136;stroke-width:0.1226;stroke-miterlimit:10;" d="M297.38,68.389
							c0,0,9.783-3.102,22.762-2.023"/>
						<path style="fill:#490C28;stroke:#DD5136;stroke-width:0.1226;stroke-miterlimit:10;" d="M300.526,66.369
							c0,0,6.979-1.775,14.381-1.564"/>
						<path style="fill:#490C28;stroke:#DD5136;stroke-width:0.1226;stroke-miterlimit:10;" d="M293.563,80.132
							c0,0,19.558-2.975,31.517-3.564"/>
						<path style="fill:#490C28;stroke:#DD5136;stroke-width:0.1226;stroke-miterlimit:10;" d="M294.072,82.186
							c0,0,21.269-1.484,30.966-3.999"/>
						<path style="fill:#490C28;stroke:#DD5136;stroke-width:0.1226;stroke-miterlimit:10;" d="M294.253,84.394
							c0,0,17.492,0.071,31.606-4.112"/>
						<path style="fill:#490C28;stroke:#DD5136;stroke-width:0.1226;stroke-miterlimit:10;" d="M296.382,86.749
							c0,0,14.527,0.427,26.847-3.49"/>
						<path style="fill:#490C28;stroke:#DD5136;stroke-width:0.1226;stroke-miterlimit:10;" d="M297.565,88.734
							c0,0,13.121,0.812,23.906-3.252"/>
						<path style="fill:#490C28;stroke:#DD5136;stroke-width:0.1226;stroke-miterlimit:10;" d="M300.214,90.691
							c0,0,11.557-0.081,19.551-2.705"/>
						<path style="fill:#490C28;stroke:#DD5136;stroke-width:0.1226;stroke-miterlimit:10;" d="M302.871,92.38
							c0,0,8.311-0.24,14.85-2.156"/>
					</g>
				</g>
			</g>
			<path style="fill:#EBAE59;" d="M323.139,76.997c1.421,1.124-0.282,5.645-3.804,10.098c-3.522,4.453-7.529,7.152-8.95,6.028
				c-1.421-1.124,0.282-5.645,3.804-10.098C317.71,78.572,321.718,75.873,323.139,76.997z"/>
			<path style="fill:#E06457;" d="M315.302,83.906c-3.171,4.009-4.839,7.973-3.725,8.854l46.593,33.124l3.928-4.966l3.927-4.966
				l-42.965-37.711C321.946,77.361,318.472,79.897,315.302,83.906z"/>
			<path style="fill:#BC483F;" d="M366.025,115.952c0.762,0.603-0.379,3.314-2.548,6.056c-2.169,2.743-4.545,4.477-5.307,3.875
				c-0.762-0.603,0.379-3.314,2.548-6.057S365.263,115.35,366.025,115.952z"/>
			<path style="fill:#490C28;" d="M363.353,119.33c0.243,0.193-0.121,1.06-0.815,1.936c-0.693,0.877-1.453,1.431-1.697,1.239
				c-0.243-0.193,0.121-1.06,0.815-1.936C362.35,119.692,363.109,119.137,363.353,119.33z"/>
			<path style="fill:#E06457;" d="M299.481,89.195c0.078,0.064,0.156,0.128,0.235,0.191c0.507,0.401,1.034,0.761,1.576,1.081
				c0.884-3.603,3.18-8.073,6.587-12.38c3.432-4.34,7.285-7.62,10.605-9.299c-0.443-0.463-0.922-0.902-1.439-1.31
				c-0.069-0.055-0.139-0.108-0.209-0.161c-3.349,1.659-7.257,4.968-10.734,9.364C302.651,81.041,300.341,85.569,299.481,89.195z"/>
			<path style="fill:#BC483F;" d="M315.302,83.906c-3.171,4.009-4.839,7.973-3.725,8.854l46.593,33.124l-1.839-3.383
				c-0.657-1.209-1.642-2.204-2.837-2.887c-3.8-2.171-8.46-5.379-20.519-14.917c-18.842-14.903-11.023-24.308-9.359-25.967
				l-0.556-0.488C321.946,77.361,318.472,79.897,315.302,83.906z"/>
			<g>
				<path style="fill:#FCF6DB;" d="M299.481,89.195c0.484-2.344,1.368-4.596,2.432-6.747c1.054-2.16,2.362-4.198,3.858-6.084
					c1.5-1.881,3.16-3.648,5.046-5.144c0.913-0.783,1.908-1.458,2.898-2.134c0.488-0.347,1.023-0.624,1.545-0.916
					c0.521-0.294,1.047-0.578,1.574-0.854c-1.939,1.397-3.874,2.766-5.585,4.402c-1.75,1.584-3.352,3.324-4.805,5.177
					c-1.481,1.833-2.778,3.811-3.951,5.862C301.326,84.811,300.303,86.955,299.481,89.195z"/>
			</g>
			<g>
				<path style="fill:#FCF6DB;" d="M326.275,81.064c-1.283,0.889-2.292,2.081-3.121,3.354l-0.052-0.382
					c4.143,3.165,8.161,6.481,12.041,9.965l-0.36,0.026c0.486-0.494,0.982-0.976,1.49-1.448c0.51-0.467,1.001-0.962,1.576-1.357
					c-0.255,0.233-0.464,0.511-0.693,0.768l-0.667,0.792l-1.319,1.596l-0.152,0.184l-0.208-0.158
					c-4.157-3.148-8.176-6.463-12.069-9.93l-0.206-0.183l0.154-0.199c0.487-0.628,1.024-1.217,1.625-1.73
					C324.919,81.855,325.558,81.38,326.275,81.064z"/>
			</g>
			<g>
				<path style="fill:#FCF6DB;" d="M356.296,124.551c0.19-1.094,0.595-2.14,1.09-3.132c0.492-0.997,1.098-1.937,1.789-2.811
					c1.381-1.742,3.123-3.227,5.122-4.172c-0.794,0.775-1.6,1.491-2.335,2.281c-0.749,0.772-1.453,1.582-2.114,2.423
					c-0.677,0.83-1.289,1.712-1.882,2.61C357.377,122.653,356.82,123.579,356.296,124.551z"/>
			</g>
			<path style="fill:#490C28;" d="M362.097,120.918l-1.256,1.588l4.017,2.707c0.72,0.485,1.692,0.334,2.23-0.347l0,0l0,0l0,0
				c0.538-0.681,0.462-1.661-0.176-2.25l-3.56-3.286L362.097,120.918z"/>
		</g>
	</g>
	<path style="fill:#E06457;" d="M107.021,141.569l-27.347,0.372l-1.455,6.79l0.015-0.001l-4.782,22.311
		c-1.272-0.898-3.144-1.272-5.099-0.867c-3.175,0.668-5.347,3.138-4.851,5.521c0.499,2.387,3.479,3.77,6.659,3.114
		c2.265-0.476,4-1.873,4.638-3.496l0.021,0.005l0.021-0.1c0.127-0.352,0.212-0.712,0.231-1.078l5.458-25.463l22.783-0.533
		l-4.821,22.492c-1.274-0.916-3.162-1.296-5.13-0.883c-3.18,0.664-5.348,3.137-4.856,5.518c0.499,2.387,3.48,3.776,6.659,3.113
		c2.647-0.555,4.572-2.365,4.859-4.33l0.017,0.003l5.565-25.965l0.017-0.001L107.021,141.569z"/>
	<path style="fill:#490C28;" d="M431.167,139.748l-0.843-0.235c-4.385-1.257-5.338-2.239-6.049-3.377l-0.021-0.072
		c-0.157-0.527-0.712-0.829-1.242-0.671c-0.53,0.158-0.829,0.715-0.672,1.242l9.997,33.546l0.01-0.003l0.05,0.168
		c-2.115-0.639-4.872,0.008-7.107,1.913c-3.106,2.659-4.009,6.702-2.026,9.033c1.993,2.334,6.13,2.068,9.241-0.584
		c2.637-2.257,3.679-5.496,2.724-7.853l-5.34-17.919l-0.009,0.003l-4.523-15.176c1.038,0.564,2.434,1.102,4.418,1.671l0.87,0.24
		c4.406,1.203,8.686,2.735,8.386,6.981c-0.04,0.548,0.374,1.027,0.922,1.066c0.554,0.038,1.03-0.375,1.069-0.923
		C441.46,142.559,434.766,140.731,431.167,139.748z"/>
	<g>
		
			<ellipse transform="matrix(0.7071 -0.7071 0.7071 0.7071 -109.3443 257.6166)" style="fill:#490C28;" cx="256.299" cy="260.798" rx="142.284" ry="142.284"/>
		
			<ellipse transform="matrix(0.7071 -0.7071 0.7071 0.7071 -108.7276 257.7223)" style="opacity:0.18;fill:none;stroke:#12161D;stroke-width:1.834;stroke-miterlimit:10;" cx="256.735" cy="260.107" rx="84.285" ry="84.285"/>
		
			<ellipse transform="matrix(0.7071 -0.7071 0.7071 0.7071 -109.0841 257.509)" style="opacity:0.18;fill:none;stroke:#12161D;stroke-width:2.1025;stroke-miterlimit:10;" cx="256.299" cy="260.431" rx="122.655" ry="122.655"/>
		<g style="opacity:0.84;">
			<polygon style="opacity:0.66;fill:#FFF0D7;" points="330.34,131.723 267.63,110.962 254.318,234.905 276.243,231.319 
				289.58,247.007 381.893,173.025 			"/>
			<polygon style="opacity:0.52;fill:#FFF0D7;" points="330.34,131.723 291.805,116.783 265.945,225.726 276.243,231.319 
				286.541,236.913 363.85,155.915 			"/>
		</g>
		<g style="opacity:0.84;">
			<polygon style="opacity:0.66;fill:#FFF0D7;" points="181.696,388.165 244.314,409.201 258.169,285.317 236.229,288.807 
				222.96,273.06 130.324,346.637 			"/>
			<polygon style="opacity:0.52;fill:#FFF0D7;" points="181.696,388.165 220.164,403.274 246.502,294.446 236.229,288.807 
				225.955,283.168 148.292,363.827 			"/>
		</g>
		<path style="fill:#EBAE59;" d="M256.299,105.265c-85.809,0-155.371,69.562-155.371,155.371s69.562,155.371,155.371,155.371
			c85.809,0,155.371-69.562,155.371-155.371S342.108,105.265,256.299,105.265z M256.299,402.437
			c-78.315,0-141.801-63.487-141.801-141.801s63.487-141.802,141.801-141.802c78.315,0,141.801,63.487,141.801,141.802
			S334.614,402.437,256.299,402.437z"/>
		
			<ellipse transform="matrix(0.9865 -0.1635 0.1635 0.9865 -39.0762 45.4018)" style="fill:#FCF6DB;" cx="256.299" cy="260.107" rx="65.015" ry="65.015"/>
		
			<ellipse transform="matrix(0.9191 -0.394 0.394 0.9191 -81.745 122.0089)" style="fill:#EBAE59;" cx="256.299" cy="260.107" rx="47.315" ry="47.315"/>
		<path style="fill:#B7331E;" d="M260.786,262.149c0,3.572-2.896,6.467-6.467,6.467c-3.572,0-6.467-2.896-6.467-6.467
			c0-3.572,2.896-6.467,6.467-6.467C257.89,255.682,260.786,258.577,260.786,262.149z"/>
		<path style="fill:#FFF0D7;" d="M262.766,260.107c0,3.572-2.895,6.467-6.467,6.467c-3.572,0-6.467-2.896-6.467-6.467
			s2.896-6.467,6.467-6.467C259.871,253.639,262.766,256.535,262.766,260.107z"/>
		<path style="fill:#D3964C;" d="M256.299,105.265c-85.809,0-155.371,69.562-155.371,155.371c0,30.062,8.547,58.124,23.33,81.906
			c10.329,3.186,12.501-4.555,12.501-4.555s0.094-0.164,0.348-0.51c-14.304-22.141-22.61-48.52-22.61-76.841
			c0-78.315,63.487-141.801,141.802-141.801c53.423,0,99.939,29.548,124.116,73.189c11.56,0.557,11.433-7.154,11.427-7.37
			C365.227,137.278,314.505,105.265,256.299,105.265z"/>
		<path style="opacity:0.44;fill:#490A17;" d="M166.08,201.213c-1.111-1.635-2.605-2.974-4.352-3.901l-9.711-5.151l-0.011,0.002
			l-10.836-35.859c-3.654,4.03-7.093,8.258-10.312,12.656l7.451,27.053l-0.386,0.146l-5.56,9.483
			c-0.25,0.426-0.473,0.867-0.668,1.318c-0.586,1.353-0.922,2.806-0.987,4.287l-5.599,126.88c-0.016,0.373-0.003,0.731,0.024,1.082
			c0.007,0.085,0.014,0.17,0.023,0.254c0.036,0.342,0.086,0.676,0.16,0.996c0.004,0.017,0.01,0.033,0.014,0.049
			c0.074,0.306,0.168,0.599,0.275,0.884c0.027,0.072,0.054,0.144,0.083,0.215c0.118,0.29,0.248,0.572,0.398,0.838
			c0.013,0.023,0.028,0.044,0.041,0.066c0.143,0.249,0.302,0.484,0.47,0.711c0.041,0.055,0.081,0.11,0.123,0.164
			c0.187,0.238,0.383,0.466,0.595,0.678c0.018,0.018,0.037,0.033,0.054,0.051c0.202,0.199,0.417,0.384,0.639,0.559
			c0.044,0.035,0.088,0.07,0.133,0.104c0.244,0.184,0.496,0.356,0.759,0.511c0.014,0.008,0.028,0.015,0.041,0.022
			c0.257,0.15,0.523,0.283,0.795,0.404c0.036,0.016,0.071,0.033,0.108,0.048c0.291,0.125,0.587,0.234,0.89,0.325
			c0.003,0.001,0.006,0.002,0.009,0.003c0.305,0.091,0.615,0.163,0.928,0.22c0.02,0.004,0.039,0.008,0.058,0.011
			c0.647,0.113,1.306,0.15,1.962,0.109c0.002,0,0.005,0,0.007,0c0.997-0.063,1.982-0.309,2.898-0.751c0,0,0,0,0,0h0
			c1.558-0.751,2.914-2.065,3.766-4.02l23.745-54.45c2.277-5.223,8.76-7.062,13.441-3.813l48.799,33.871
			c7.251,5.033,16.086-3.716,11.125-11.016L166.08,201.213z"/>
		<path style="opacity:0.43;fill:#490A17;" d="M391.52,185.106c-0.281-0.369-0.563-0.729-0.844-1.08
			c-0.424-0.528-0.846-1.037-1.261-1.524c-0.343-0.402-0.655-0.835-0.942-1.289c-0.144-0.228-0.281-0.462-0.411-0.702
			c-0.085-0.156-0.167-0.314-0.245-0.474c-0.232-0.474-0.44-0.969-0.623-1.483c-0.112-0.313-0.217-0.631-0.311-0.957
			c-0.166-0.578-0.299-1.181-0.41-1.797c-3.431-5.254-7.172-10.287-11.196-15.074c-0.31,0.344-0.623,0.679-0.941,1.006
			c-0.031,0.032-0.063,0.065-0.094,0.097c-0.321,0.328-0.646,0.647-0.974,0.956c-0.013,0.012-0.025,0.023-0.038,0.035
			c-0.679,0.637-1.372,1.231-2.077,1.779c-0.014,0.011-0.027,0.021-0.041,0.032c-1.074,0.832-2.173,1.555-3.284,2.149l-0.001,0.001
			c-1.117,0.597-2.246,1.063-3.373,1.379c-1.246,0.349-2.489,0.519-3.713,0.474c-9.108-0.335-22.36,0.799-31.097,16.723h0l0,0
			l-4.492,9.271c0,0,11.91,2.961,10.749,12.319c-5.728,6.642-14.923,7.973-26.079,3.627c0,0-3.943,5.219-6.923,12.997
			c-6.273,10.576-20.045,41.284,17.135,60.568l-10.249,25.45l2.127,1.025l13.338-24.009c37.287,16.043,52.566-13.174,56.954-24.589
			c0.123-0.208,0.248-0.416,0.367-0.622c0.161-0.278,0.316-0.553,0.468-0.827c0.043-0.077,0.085-0.153,0.127-0.23
			c0.13-0.236,0.258-0.471,0.382-0.705c0.022-0.041,0.045-0.083,0.066-0.124c0.142-0.267,0.279-0.532,0.413-0.794
			c0.037-0.072,0.073-0.144,0.109-0.215c0.109-0.216,0.216-0.43,0.321-0.642c0.027-0.054,0.054-0.109,0.081-0.163
			c0.124-0.255,0.245-0.506,0.362-0.755c0.03-0.062,0.058-0.124,0.087-0.186c0.094-0.202,0.186-0.401,0.276-0.598
			c0.028-0.061,0.056-0.122,0.083-0.183c0.107-0.238,0.212-0.473,0.312-0.704c0.023-0.051,0.044-0.101,0.066-0.152
			c0.082-0.19,0.162-0.377,0.24-0.562c0.026-0.061,0.051-0.122,0.077-0.182c0.092-0.22,0.182-0.437,0.267-0.648
			c0.014-0.033,0.026-0.065,0.039-0.098c0.074-0.184,0.145-0.364,0.215-0.541c0.022-0.057,0.045-0.114,0.066-0.17
			c0.075-0.193,0.148-0.383,0.217-0.567c0.004-0.012,0.009-0.023,0.013-0.035c0.07-0.186,0.136-0.366,0.2-0.541
			c0.018-0.05,0.036-0.098,0.053-0.147c0.054-0.15,0.107-0.297,0.156-0.438c0.009-0.026,0.019-0.052,0.027-0.078
			c0.057-0.161,0.109-0.315,0.16-0.463c0.014-0.041,0.027-0.081,0.041-0.121c0.04-0.12,0.079-0.235,0.115-0.346
			c0.009-0.028,0.019-0.057,0.028-0.084c0.043-0.13,0.082-0.253,0.119-0.369c0.009-0.03,0.018-0.057,0.027-0.086
			c0.029-0.093,0.056-0.18,0.082-0.263c0.008-0.025,0.016-0.05,0.023-0.074c0.029-0.096,0.056-0.185,0.08-0.266
			c0.005-0.017,0.009-0.031,0.014-0.047c0.02-0.066,0.037-0.126,0.052-0.18c0.005-0.017,0.01-0.033,0.014-0.049
			c0.017-0.059,0.031-0.111,0.043-0.153c0.001-0.006,0.002-0.009,0.004-0.014c0.011-0.039,0.019-0.069,0.025-0.09
			c0.002-0.008,0.003-0.01,0.004-0.016c0.004-0.017,0.007-0.028,0.007-0.028c-4.331-2.536-7.667-5.421-9.959-8.55
			c-0.833-1.138-1.529-2.309-2.084-3.507c-0.139-0.299-0.269-0.601-0.39-0.904c-1.245-3.109-1.556-6.39-0.905-9.76
			c6.617-6.691,16.316,0.798,16.316,0.798c1.056-2.502,4.492-9.271,4.492-9.271c0.662-1.569,1.198-3.088,1.62-4.559
			c0.511-1.78,0.848-3.486,1.049-5.126c0.042-0.344,0.078-0.686,0.108-1.025c0.18-2.045,0.146-3.984-0.072-5.815
			c-0.072-0.607-0.169-1.199-0.278-1.783c-0.092-0.494-0.195-0.981-0.311-1.459c-0.229-0.939-0.503-1.846-0.813-2.724
			c-0.23-0.65-0.487-1.275-0.754-1.892c-0.529-1.091-1.07-2.175-1.624-3.251C393.593,187.99,392.566,186.48,391.52,185.106z"/>
	</g>
	<g>
		<g>
			<path style="fill:#FCF6DB;" d="M127.168,216.032c-0.022,5.222-0.165,10.438-0.243,15.658l-0.44,15.649
				c-0.296,10.433-0.739,20.859-1.183,31.284c-0.488,10.424-0.98,20.848-1.618,31.265l-0.963,15.626
				c-0.39,5.205-0.715,10.414-1.161,15.617c0.021-5.222,0.163-10.439,0.241-15.658l0.439-15.649
				c0.297-10.432,0.74-20.858,1.186-31.284c0.491-10.424,0.982-20.848,1.621-31.265l0.962-15.626
				C126.398,226.443,126.723,221.235,127.168,216.032z"/>
		</g>
		<g>
			<path style="fill:#E06457;" d="M233.931,311.036l-71.39-105.039c-1.111-1.635-2.605-2.974-4.352-3.901l-9.711-5.151l-7.217,1.401
				l-6.878,2.597l-5.56,9.483c-1,1.706-1.568,3.63-1.655,5.605l-5.599,126.88c-0.389,8.818,11.724,11.624,15.252,3.534l23.745-54.45
				c2.277-5.223,8.76-7.062,13.441-3.813l48.799,33.87C230.057,327.085,238.893,318.336,233.931,311.036z"/>
			<path style="opacity:0.44;fill:#FFFFFF;" d="M135.791,200.413l-1.408,0.531l-5.56,9.483c-1,1.706-1.568,3.63-1.655,5.605
				l-5.599,126.88c-0.295,6.687,6.598,9.911,11.487,7.553c-5.178,0.332-7.113-4.645-6.914-9.047
				c0.364-10.929,2.549-123.051,3.9-126.682c1.352-3.631,6.42-10.265,6.42-10.265L135.791,200.413z"/>
			<path style="fill:#490C28;" d="M133.37,288.769l-2.197-65.587c-0.065-1.951,1.208-3.696,3.086-4.229l23.514-6.67
				c1.759-0.499,3.64,0.184,4.67,1.695l57.522,84.411c1.23,1.805-0.536,4.14-2.607,3.448l-32.144-10.731
				c-3.075-1.027-5.444-3.507-6.329-6.625l-5.43-19.14c-0.459-1.617-2.141-2.556-3.758-2.097l-19.883,5.641
				c-1.423,0.404-2.63,1.352-3.359,2.638l-10.181,17.961C135.501,290.848,133.423,290.337,133.37,288.769z"/>
			<path style="fill:#490C28;" d="M139.437,217.746L106.125,96.805l-8.482-3.373l-1.004-40.305c0,0,4.195-10.865,12.734-5.79
				c7.518,4.508,1.223,12.537-0.223,14.239l9.899,13.56c1.634,2.238,1.454,5.319-0.429,7.351l-0.559,0.603
				c-1.028,1.11-1.537,2.603-1.401,4.11l0.582,6.426l36.29,120.089C153.533,213.714,149.28,219.87,139.437,217.746z"/>
			<path style="fill:#FFF6E7;" d="M156.812,224.274l-14.691,4.202c-1.665,0.476-3.417-0.496-3.894-2.162h0
				c-0.476-1.665,0.496-3.417,2.162-3.894l14.691-4.202c1.665-0.476,3.417,0.497,3.894,2.162l0,0
				C159.45,222.046,158.477,223.798,156.812,224.274z"/>
			<path style="fill:#FFF6E7;" d="M161.054,239.107l-14.691,4.202c-1.665,0.476-3.417-0.496-3.894-2.162l0,0
				c-0.476-1.665,0.497-3.417,2.162-3.894l14.692-4.202c1.665-0.476,3.417,0.496,3.894,2.162l0,0
				C163.692,236.879,162.719,238.631,161.054,239.107z"/>
			<path style="fill:#FFF6E7;" d="M165.004,254.368l-15.068,2.538c-1.708,0.288-3.341-0.874-3.628-2.582l0,0
				c-0.288-1.708,0.874-3.341,2.582-3.628l15.068-2.538c1.708-0.288,3.341,0.874,3.628,2.582l0,0
				C167.874,252.448,166.712,254.081,165.004,254.368z"/>
			<g>
				<g>
					<path style="fill:#490C28;" d="M142.602,226.406L142.602,226.406c-0.573,0.164-1.176-0.171-1.34-0.744l0,0
						c-0.164-0.573,0.171-1.176,0.744-1.34l0,0c0.573-0.164,1.176,0.171,1.34,0.744l0,0
						C143.51,225.638,143.175,226.242,142.602,226.406z"/>
					<path style="fill:#490C28;" d="M145.699,225.52L145.699,225.52c-0.573,0.164-1.176-0.171-1.34-0.744l0,0
						c-0.164-0.573,0.171-1.176,0.744-1.34l0,0c0.573-0.164,1.176,0.171,1.34,0.744l0,0
						C146.607,224.753,146.273,225.356,145.699,225.52z"/>
					<path style="fill:#490C28;" d="M148.797,224.634L148.797,224.634c-0.573,0.164-1.176-0.171-1.34-0.744l0,0
						c-0.164-0.573,0.171-1.176,0.744-1.34l0,0c0.573-0.164,1.177,0.171,1.34,0.744l0,0
						C149.705,223.867,149.37,224.47,148.797,224.634z"/>
					<path style="fill:#490C28;" d="M151.894,223.748L151.894,223.748c-0.573,0.164-1.176-0.171-1.34-0.744l0,0
						c-0.164-0.573,0.171-1.177,0.744-1.34l0,0c0.573-0.164,1.176,0.171,1.34,0.744l0,0
						C152.802,222.981,152.467,223.584,151.894,223.748z"/>
					<path style="fill:#490C28;" d="M154.991,222.862L154.991,222.862c-0.573,0.164-1.176-0.171-1.34-0.744l0,0
						c-0.164-0.573,0.171-1.176,0.744-1.34l0,0c0.573-0.164,1.177,0.171,1.34,0.744l0,0
						C155.9,222.095,155.565,222.698,154.991,222.862z"/>
					<path style="fill:#490C28;" d="M146.844,241.239L146.844,241.239c-0.573,0.164-1.176-0.171-1.34-0.744l0,0
						c-0.164-0.573,0.171-1.176,0.744-1.34l0,0c0.573-0.164,1.176,0.171,1.34,0.744l0,0
						C147.752,240.471,147.417,241.075,146.844,241.239z"/>
					<path style="fill:#490C28;" d="M149.942,240.353L149.942,240.353c-0.573,0.164-1.176-0.171-1.34-0.744l0,0
						c-0.164-0.573,0.171-1.176,0.744-1.34l0,0c0.573-0.164,1.176,0.171,1.34,0.744l0,0
						C150.85,239.586,150.515,240.189,149.942,240.353z"/>
					<path style="fill:#490C28;" d="M153.039,239.467L153.039,239.467c-0.573,0.164-1.176-0.171-1.34-0.744l0,0
						c-0.164-0.573,0.171-1.176,0.744-1.34l0,0c0.573-0.164,1.176,0.171,1.34,0.744l0,0
						C153.947,238.7,153.612,239.303,153.039,239.467z"/>
					<path style="fill:#490C28;" d="M156.137,238.581L156.137,238.581c-0.573,0.164-1.176-0.171-1.34-0.744l0,0
						c-0.164-0.573,0.171-1.176,0.744-1.34l0,0c0.573-0.164,1.176,0.171,1.34,0.744l0,0
						C157.045,237.814,156.71,238.417,156.137,238.581z"/>
					<path style="fill:#490C28;" d="M159.234,237.695L159.234,237.695c-0.573,0.164-1.176-0.171-1.34-0.744l0,0
						c-0.164-0.573,0.171-1.176,0.744-1.34l0,0c0.573-0.164,1.176,0.171,1.34,0.744l0,0
						C160.142,236.928,159.807,237.531,159.234,237.695z"/>
					<path style="fill:#490C28;" d="M150.646,254.903L150.646,254.903c-0.588,0.099-1.15-0.301-1.249-0.889l0,0
						c-0.099-0.588,0.301-1.15,0.889-1.249l0,0c0.588-0.099,1.15,0.301,1.249,0.889l0,0
						C151.634,254.241,151.234,254.803,150.646,254.903z"/>
					<path style="fill:#490C28;" d="M153.822,254.367L153.822,254.367c-0.588,0.099-1.15-0.301-1.249-0.889l0,0
						c-0.099-0.588,0.301-1.15,0.889-1.249l0,0c0.588-0.099,1.15,0.301,1.249,0.889l0,0
						C154.81,253.706,154.41,254.268,153.822,254.367z"/>
					<path style="fill:#490C28;" d="M156.999,253.832L156.999,253.832c-0.588,0.099-1.15-0.301-1.249-0.889l0,0
						c-0.099-0.588,0.301-1.15,0.889-1.249l0,0c0.588-0.099,1.15,0.301,1.249,0.889l0,0
						C157.987,253.171,157.587,253.733,156.999,253.832z"/>
					<path style="fill:#490C28;" d="M160.176,253.297L160.176,253.297c-0.588,0.099-1.15-0.301-1.249-0.889l0,0
						c-0.099-0.588,0.301-1.15,0.889-1.249l0,0c0.588-0.099,1.15,0.301,1.249,0.889l0,0
						C161.164,252.636,160.764,253.198,160.176,253.297z"/>
					<path style="fill:#490C28;" d="M163.353,252.762L163.353,252.762c-0.588,0.099-1.15-0.301-1.249-0.889l0,0
						c-0.099-0.588,0.301-1.15,0.889-1.249l0,0c0.588-0.099,1.15,0.301,1.249,0.889l0,0
						C164.341,252.101,163.941,252.663,163.353,252.762z"/>
				</g>
			</g>
			<path style="fill:#EBAE59;" d="M170.254,269.076l-15.853,4.534c-1.351,0.387-2.76-0.396-3.147-1.747l-1.61-5.629
				c-0.387-1.351,0.396-2.76,1.747-3.147l15.853-4.534c1.351-0.387,2.76,0.396,3.147,1.747l1.61,5.629
				C172.388,267.281,171.605,268.69,170.254,269.076z"/>
			
				<line style="fill:none;stroke:#FFF6E7;stroke-width:0.4689;stroke-miterlimit:10;" x1="106.125" y1="96.805" x2="117.243" y2="93.626"/>
			
				<line style="fill:none;stroke:#FFF6E7;stroke-width:0.4689;stroke-miterlimit:10;" x1="108.814" y1="106.577" x2="120.173" y2="103.328"/>
			
				<line style="fill:none;stroke:#FFF6E7;stroke-width:0.4689;stroke-miterlimit:10;" x1="111.639" y1="116.839" x2="123.253" y2="113.517"/>
			
				<line style="fill:none;stroke:#FFF6E7;stroke-width:0.4689;stroke-miterlimit:10;" x1="114.44" y1="127.019" x2="126.312" y2="123.623"/>
			
				<line style="fill:none;stroke:#FFF6E7;stroke-width:0.4689;stroke-miterlimit:10;" x1="117.304" y1="137.423" x2="129.436" y2="133.953"/>
			
				<line style="fill:none;stroke:#FFF6E7;stroke-width:0.4689;stroke-miterlimit:10;" x1="119.811" y1="146.531" x2="132.168" y2="142.997"/>
			
				<line style="fill:none;stroke:#FFF6E7;stroke-width:0.4689;stroke-miterlimit:10;" x1="122.427" y1="156.039" x2="135.018" y2="152.438"/>
			
				<line style="fill:none;stroke:#FFF6E7;stroke-width:0.4689;stroke-miterlimit:10;" x1="124.852" y1="164.85" x2="137.659" y2="161.187"/>
			
				<line style="fill:none;stroke:#FFF6E7;stroke-width:0.4689;stroke-miterlimit:10;" x1="127.4" y1="174.107" x2="140.444" y2="170.376"/>
			
				<line style="fill:none;stroke:#FFF6E7;stroke-width:0.4689;stroke-miterlimit:10;" x1="129.647" y1="182.27" x2="142.893" y2="178.481"/>
			
				<line style="fill:none;stroke:#FFF6E7;stroke-width:0.4689;stroke-miterlimit:10;" x1="131.743" y1="189.886" x2="145.178" y2="186.043"/>
			
				<line style="fill:none;stroke:#FFF6E7;stroke-width:0.4689;stroke-miterlimit:10;" x1="133.661" y1="196.855" x2="147.272" y2="192.962"/>
			
				<line style="fill:none;stroke:#FFF6E7;stroke-width:0.4689;stroke-miterlimit:10;" x1="135.291" y1="202.777" x2="149.052" y2="198.841"/>
			
				<line style="fill:none;stroke:#FFF6E7;stroke-width:0.4689;stroke-miterlimit:10;" x1="136.867" y1="208.502" x2="150.768" y2="204.526"/>
			
				<line style="fill:none;stroke:#FFF6E7;stroke-width:0.4699;stroke-miterlimit:10;" x1="154.353" y1="265.426" x2="104.234" y2="85.735"/>
			
				<line style="fill:none;stroke:#FFF6E7;stroke-width:0.4699;stroke-miterlimit:10;" x1="156.899" y1="264.684" x2="103.961" y2="79.598"/>
			
				<line style="fill:none;stroke:#FFF6E7;stroke-width:0.4699;stroke-miterlimit:10;" x1="159.258" y1="264.009" x2="103.746" y2="72.062"/>
			
				<line style="fill:none;stroke:#FFF6E7;stroke-width:0.4699;stroke-miterlimit:10;" x1="161.558" y1="263.351" x2="103.192" y2="63.648"/>
			
				<line style="fill:none;stroke:#FFF6E7;stroke-width:0.4699;stroke-miterlimit:10;" x1="163.904" y1="262.68" x2="103.551" y2="57.862"/>
			
				<line style="fill:none;stroke:#FFF6E7;stroke-width:0.4699;stroke-miterlimit:10;" x1="166.063" y1="262.063" x2="103.368" y2="51.31"/>
			<path style="fill:#FFF6E7;" d="M104.996,85.375c0.126,0.442-0.129,0.903-0.571,1.029c-0.442,0.126-0.902-0.129-1.029-0.571
				c-0.126-0.442,0.129-0.902,0.571-1.029C104.409,84.678,104.87,84.934,104.996,85.375z"/>
			<path style="fill:#FFF6E7;" d="M104.724,79.237c0.126,0.442-0.129,0.902-0.571,1.029c-0.442,0.126-0.902-0.129-1.029-0.571
				c-0.126-0.442,0.129-0.902,0.571-1.029C104.137,78.539,104.597,78.795,104.724,79.237z"/>
			<path style="fill:#FFF6E7;" d="M104.554,71.863c0.126,0.442-0.129,0.902-0.571,1.029c-0.442,0.126-0.902-0.129-1.029-0.571
				c-0.126-0.442,0.129-0.902,0.571-1.029C103.968,71.165,104.428,71.421,104.554,71.863z"/>
			<path style="fill:#FFF6E7;" d="M104.001,63.417c0.126,0.442-0.129,0.902-0.571,1.029c-0.442,0.126-0.902-0.129-1.029-0.571
				c-0.126-0.442,0.129-0.902,0.571-1.029C103.414,62.719,103.874,62.975,104.001,63.417z"/>
			<path style="fill:#FFF6E7;" d="M104.356,57.651c0.126,0.442-0.13,0.902-0.571,1.029c-0.442,0.126-0.902-0.129-1.029-0.571
				c-0.126-0.442,0.129-0.902,0.571-1.029C103.769,56.954,104.229,57.209,104.356,57.651z"/>
			<path style="fill:#FFF6E7;" d="M104.142,50.993c0.126,0.442-0.129,0.902-0.571,1.029c-0.442,0.126-0.902-0.129-1.029-0.571
				c-0.126-0.442,0.129-0.902,0.571-1.029C103.555,50.295,104.016,50.551,104.142,50.993z"/>
			<path style="fill:#E06457;" d="M96.561,54.263c0.347,1.213-0.355,2.478-1.568,2.824c-1.213,0.347-2.477-0.355-2.824-1.568
				c-0.347-1.213,0.355-2.478,1.568-2.824C94.95,52.348,96.214,53.05,96.561,54.263z"/>
			<path style="fill:#E06457;" d="M96.815,61.065c0.347,1.213-0.355,2.478-1.568,2.824c-1.213,0.347-2.478-0.355-2.824-1.568
				c-0.347-1.213,0.355-2.478,1.568-2.825C95.203,59.15,96.468,59.852,96.815,61.065z"/>
			<path style="fill:#E06457;" d="M96.845,67.742c0.347,1.213-0.355,2.478-1.568,2.825c-1.213,0.347-2.478-0.355-2.825-1.568
				c-0.347-1.213,0.355-2.478,1.568-2.824C95.233,65.827,96.498,66.529,96.845,67.742z"/>
			<path style="fill:#E06457;" d="M97.091,74.54c0.347,1.213-0.355,2.478-1.568,2.824c-1.213,0.347-2.477-0.355-2.824-1.568
				c-0.347-1.213,0.355-2.477,1.568-2.824C95.479,72.625,96.744,73.327,97.091,74.54z"/>
			<path style="fill:#E06457;" d="M97.192,81.391c0.347,1.213-0.355,2.478-1.568,2.825c-1.213,0.347-2.478-0.355-2.824-1.568
				c-0.347-1.213,0.355-2.478,1.568-2.824C95.581,79.476,96.845,80.178,97.192,81.391z"/>
			<path style="fill:#E06457;" d="M97.422,88.387c0.347,1.213-0.355,2.477-1.568,2.824c-1.213,0.347-2.477-0.355-2.824-1.568
				c-0.347-1.213,0.355-2.478,1.568-2.825C95.81,86.472,97.075,87.174,97.422,88.387z"/>
			<path style="fill:#FFF6E7;" d="M155.262,265.688c0.135,0.473-0.139,0.967-0.612,1.102c-0.473,0.135-0.967-0.138-1.102-0.612
				c-0.135-0.473,0.139-0.967,0.612-1.102C154.633,264.941,155.127,265.215,155.262,265.688z"/>
			<path style="fill:#FFF6E7;" d="M157.622,265.013c0.135,0.473-0.139,0.967-0.612,1.102c-0.473,0.135-0.967-0.138-1.102-0.612
				c-0.135-0.473,0.139-0.967,0.612-1.102S157.486,264.54,157.622,265.013z"/>
			<path style="fill:#FFF6E7;" d="M159.981,264.338c0.135,0.473-0.139,0.967-0.612,1.102c-0.473,0.135-0.967-0.139-1.102-0.612
				c-0.135-0.473,0.139-0.967,0.612-1.102C159.353,263.591,159.846,263.865,159.981,264.338z"/>
			<path style="fill:#FFF6E7;" d="M162.341,263.663c0.135,0.473-0.139,0.967-0.612,1.102c-0.473,0.135-0.967-0.139-1.102-0.612
				c-0.135-0.473,0.139-0.967,0.612-1.102C161.712,262.916,162.206,263.19,162.341,263.663z"/>
			<path style="fill:#FFF6E7;" d="M164.701,262.988c0.135,0.473-0.139,0.967-0.612,1.102c-0.473,0.135-0.967-0.139-1.102-0.612
				s0.139-0.967,0.612-1.102C164.072,262.241,164.565,262.515,164.701,262.988z"/>
			<path style="fill:#FFF6E7;" d="M167.06,262.314c0.135,0.473-0.139,0.967-0.612,1.102c-0.473,0.135-0.967-0.139-1.102-0.612
				c-0.135-0.473,0.139-0.967,0.612-1.102C166.432,261.566,166.925,261.84,167.06,262.314z"/>
			<path style="fill:#FFF6E7;" d="M156.307,269.341c0.135,0.473-0.139,0.967-0.612,1.102c-0.473,0.135-0.967-0.139-1.102-0.612
				c-0.135-0.473,0.139-0.967,0.612-1.102C155.678,268.593,156.171,268.867,156.307,269.341z"/>
			<path style="fill:#FFF6E7;" d="M158.666,268.666c0.135,0.473-0.139,0.967-0.612,1.102c-0.473,0.135-0.967-0.139-1.102-0.612
				c-0.135-0.473,0.139-0.967,0.612-1.102C158.038,267.918,158.531,268.192,158.666,268.666z"/>
			<path style="fill:#FFF6E7;" d="M161.026,267.991c0.135,0.473-0.139,0.967-0.612,1.102c-0.473,0.135-0.967-0.139-1.102-0.612
				c-0.135-0.473,0.139-0.967,0.612-1.102S160.891,267.517,161.026,267.991z"/>
			<path style="fill:#FFF6E7;" d="M163.386,267.316c0.135,0.473-0.139,0.967-0.612,1.102c-0.473,0.135-0.967-0.139-1.102-0.612
				c-0.135-0.473,0.139-0.967,0.612-1.102C162.757,266.568,163.25,266.842,163.386,267.316z"/>
			<path style="fill:#FFF6E7;" d="M165.745,266.641c0.135,0.473-0.139,0.967-0.612,1.102c-0.473,0.135-0.967-0.139-1.102-0.612
				c-0.135-0.473,0.139-0.967,0.612-1.102C165.117,265.893,165.61,266.168,165.745,266.641z"/>
			<path style="fill:#FFF6E7;" d="M168.105,265.966c0.135,0.473-0.139,0.967-0.612,1.102c-0.473,0.135-0.967-0.139-1.102-0.612
				c-0.135-0.473,0.139-0.967,0.612-1.102C167.476,265.219,167.97,265.493,168.105,265.966z"/>
			<path style="fill:#EBAE59;" d="M187.432,277.373c0.518,1.826-0.542,3.726-2.368,4.244c-1.826,0.518-3.726-0.542-4.244-2.368
				c-0.518-1.826,0.542-3.726,2.368-4.244C185.014,274.487,186.914,275.547,187.432,277.373z"/>
			<path style="fill:#EBAE59;" d="M189.887,267.299c0.518,1.826-0.542,3.726-2.368,4.244c-1.826,0.518-3.726-0.542-4.244-2.368
				c-0.518-1.826,0.542-3.726,2.368-4.244C187.469,264.413,189.369,265.473,189.887,267.299z"/>
			<path style="fill:#EBAE59;" d="M197.557,275.38c0.518,1.826-0.542,3.726-2.368,4.244c-1.826,0.518-3.726-0.542-4.244-2.368
				c-0.518-1.826,0.542-3.726,2.368-4.244C195.139,272.493,197.039,273.554,197.557,275.38z"/>
			<path style="opacity:0.44;fill:#FFFFFF;" d="M152.252,302.184c0,0-13.706,34.964-18.731,40.821
				c-5.024,5.858,0.848-9.984,5.905-21.161C144.482,310.667,156.404,291.9,152.252,302.184z"/>
		</g>
	</g>
	<g>
		<path style="fill:#4C0C1A;" d="M432.697,81.007l-2.157-1.039c-1.312-0.632-1.863-2.209-1.231-3.521l0.023-0.048
			c0.632-1.312,2.208-1.863,3.521-1.231l2.157,1.039c1.312,0.632,1.863,2.208,1.231,3.521l-0.023,0.048
			C435.585,81.088,434.009,81.639,432.697,81.007z"/>
		<path id="XMLID_12_" style="fill:#35081F;" d="M381.32,165.902c-4.922,8.753-12.73,15.632-19.86,15.37
			c-7.97-0.293-26.605,7.452-26.605,7.452l-4.492,9.271c0,0,15.349,3.808,9.513,16.458c-5.038,10.923-15.731,14.058-29.335,8.758
			c0,0-31.686,41.89,16.725,65.311c48.411,23.421,61.588-27.424,61.588-27.424c-12.598-7.377-16.777-17.706-11.341-28.436
			c6.297-12.427,18.809-2.757,18.809-2.757c1.056-2.502,4.492-9.271,4.492-9.271s-5.65-19.594-10.681-25.491
			c-4.631-5.427-4.083-15.819-0.276-25.111"/>
		<path style="fill:#EBAE59;" d="M330.769,289.417l-13.647,24.565l-2.127-1.025l10.494-26.058c0.627-1.557,2.441-2.258,3.952-1.527
			l0.056,0.027C330.997,286.124,331.578,287.961,330.769,289.417z"/>
		<path style="fill:#E06457;" d="M393.345,251.827c-12.598-7.377-16.777-17.706-11.341-28.436
			c6.297-12.427,18.809-2.757,18.809-2.757c7.062-16.734-0.273-27.828-6.19-34.762c-4.631-5.427-4.083-15.819-0.276-25.111
			c3.741-9.13,25.89-59.507,33.593-73.051l-5.709-2.751c-5.844,14.456-31.586,63.073-36.422,71.672
			c-4.923,8.753-12.73,15.632-19.86,15.37c-9.108-0.335-22.36,0.799-31.097,16.723c0,0,15.348,3.808,9.513,16.459
			c-5.038,10.923-15.731,14.057-29.335,8.758c0,0-31.686,41.89,16.725,65.31C380.168,302.672,393.345,251.827,393.345,251.827z"/>
		<path style="fill:#490C28;" d="M395.732,157.453c5.823-13.761,25.551-55.799,32.263-69.718l-5.815-2.802
			c-6.521,13.434-27.465,55.465-34.634,68.56h0l-19.804,40.936c-0.481,0.995-0.065,2.192,0.93,2.673l2.291,1.108l2.629,1.272
			c1.001,0.484,2.205,0.06,2.681-0.945L395.732,157.453L395.732,157.453z"/>
		<path id="XMLID_6_" style="fill:#490C28;" d="M349.141,222.184l16.57,8.016c0.325,0.157,0.461,0.548,0.304,0.873l-0.23,0.476
			c-0.157,0.325-0.548,0.461-0.873,0.304l-16.57-8.016c-0.325-0.157-0.461-0.548-0.304-0.873l0.23-0.476
			C348.426,222.163,348.816,222.027,349.141,222.184z"/>
		<path style="fill:#FFF0D7;" d="M370.826,245.149c0,0,8.999,3.486,4.604,12.606c-4.395,9.12-0.023,13.801-0.023,13.801
			s-8.366-8.363-4.658-16.057C374.457,247.805,370.826,245.149,370.826,245.149z"/>
		<path style="fill:#FFF0D7;" d="M334.091,227.445c0,0-8.334-4.868-12.729,4.253c-4.395,9.12-10.781,8.616-10.781,8.616
			s11.754,1.333,15.462-6.36C329.751,226.26,334.091,227.445,334.091,227.445z"/>
		<g>
			<path style="fill:#6D1223;" d="M426.269,87.536l1.563,0.753c0,0,5.61-10.499,4.852-16.916c4.911,2.367,4.911,2.367,4.911,2.367
				s5.742-9.061-2.294-12.933c-8.036-3.873-10.393,5.014-10.174,10.836c0.22,5.822-0.733,8.938-3.324,13.741
				C424.035,86.459,426.269,87.536,426.269,87.536z"/>
			<g>
				<path style="fill:#E06457;" d="M435.3,60.806c-0.542-0.261-1.057-0.462-1.548-0.612c5.985,4.187,0.94,12.147,0.94,12.147
					c2.9,1.398,2.902,1.399,2.902,1.399S443.336,64.679,435.3,60.806z"/>
				<path style="fill:#E06457;" d="M429.781,69.974c0.758,6.417-4.852,16.916-4.852,16.916c0.806,0.388,1.339,0.645,1.339,0.645
					l1.563,0.753c0,0,5.61-10.499,4.852-16.916C431.985,71.037,431.048,70.585,429.781,69.974z"/>
			</g>
		</g>
		<path style="fill:#FFF0D7;" d="M355.982,253.827l-19.538-9.416c-0.83-0.4-1.178-1.396-0.778-2.226l0.015-0.03
			c0.4-0.83,1.396-1.178,2.226-0.778l19.538,9.416c0.83,0.4,1.178,1.396,0.778,2.226l-0.015,0.03
			C357.809,253.878,356.812,254.227,355.982,253.827z"/>
		<path style="fill:#EBAE59;" d="M340.996,282.986l8.142-11.116l-22.542-10.864l-3.711,13.18c2.605,1.762,5.548,3.458,8.872,5.066
			C334.992,280.816,338.069,282.047,340.996,282.986z"/>
		
			<line id="XMLID_5_" style="fill:none;stroke:#FFF0D7;stroke-width:0.6635;stroke-miterlimit:10;" x1="424.631" y1="88.658" x2="339.361" y2="267.16"/>
		
			<line id="XMLID_4_" style="fill:none;stroke:#FFF0D7;stroke-width:0.6635;stroke-miterlimit:10;" x1="426.148" y1="89.392" x2="342.618" y2="268.733"/>
		
			<line id="XMLID_3_" style="fill:none;stroke:#FFF0D7;stroke-width:0.6635;stroke-miterlimit:10;" x1="423.215" y1="87.97" x2="336.006" y2="265.536"/>
		
			<line id="XMLID_2_" style="fill:none;stroke:#FFF0D7;stroke-width:0.6635;stroke-miterlimit:10;" x1="421.71" y1="87.242" x2="332.737" y2="263.957"/>
		<path style="fill:#490C28;" d="M427.99,90.28l-7.996-3.854c-0.761-0.367-1.08-1.28-0.713-2.041l0.013-0.028
			c0.366-0.76,1.28-1.08,2.041-0.713l7.996,3.854c0.761,0.367,1.08,1.28,0.713,2.041l-0.013,0.028
			C429.665,90.327,428.751,90.646,427.99,90.28z"/>
		<path style="fill:#4C0C1A;" d="M425.753,68.033l-2.157-1.039c-1.312-0.632-1.863-2.208-1.231-3.521l0.023-0.048
			c0.632-1.312,2.208-1.863,3.52-1.231l2.157,1.039c1.312,0.632,1.863,2.208,1.231,3.521l-0.023,0.048
			C428.642,68.114,427.065,68.665,425.753,68.033z"/>
		<path style="fill:#4C0C1A;" d="M423.184,76.422l-2.157-1.04c-1.312-0.632-1.863-2.208-1.231-3.52l0.023-0.048
			c0.632-1.312,2.208-1.863,3.52-1.231l2.157,1.039c1.312,0.632,1.863,2.208,1.231,3.521l-0.023,0.048
			C426.072,76.504,424.496,77.054,423.184,76.422z"/>
		<g style="opacity:0.51;">
			<path style="fill:#490A17;" d="M379.332,170.044c-2.717,2.548-6.054,4.497-9.716,5.457c-1.828,0.471-3.744,0.697-5.652,0.547
				c-1.844-0.132-3.672-0.096-5.487,0.115c-3.635,0.398-7.126,1.704-10.197,3.626c-1.522,0.99-2.933,2.139-4.229,3.406
				c-1.288,1.279-2.418,2.705-3.464,4.187l-0.203-1.135c2.1,1.411,4.115,3.029,5.807,5.033c0.864,0.983,1.565,2.132,2.137,3.342
				c0.537,1.234,0.873,2.563,0.972,3.91c0.186,2.709-0.573,5.315-1.587,7.673c-1.049,2.36-2.323,4.575-3.898,6.637
				c-1.575,2.05-3.535,3.886-5.837,5.188c-2.305,1.298-4.875,2.035-7.439,2.362c-2.572,0.349-5.143,0.25-7.67,0.027
				c-2.537-0.209-5.018-0.689-7.49-1.173l0.987-0.484c-2.141,4.374-4.048,8.86-5.456,13.485c-1.405,4.614-2.216,9.442-1.798,14.236
				c0.396,4.798,2.249,9.392,4.904,13.44c2.677,4.06,6.158,7.561,9.849,10.784c-3.893-2.976-7.534-6.359-10.447-10.373
				c-2.917-3.985-4.989-8.724-5.525-13.722c-0.571-4.991,0.142-10.033,1.46-14.814c1.329-4.797,3.29-9.364,5.403-13.821l0.293-0.619
				l0.694,0.134c4.825,0.932,9.771,1.619,14.544,0.992c2.372-0.326,4.672-1.016,6.708-2.186c2.051-1.143,3.825-2.758,5.301-4.643
				c1.47-1.886,2.721-4.012,3.712-6.196c0.965-2.185,1.642-4.516,1.501-6.81c-0.076-1.143-0.347-2.259-0.794-3.317
				c-0.486-1.04-1.078-2.051-1.856-2.949c-1.502-1.835-3.42-3.365-5.403-4.798l-0.682-0.493l0.479-0.643
				c1.142-1.533,2.374-3.003,3.769-4.317c1.403-1.302,2.925-2.475,4.557-3.474c3.292-1.942,6.994-3.207,10.789-3.521
				c1.891-0.184,3.805-0.103,5.671,0.104c1.806,0.222,3.652,0.087,5.445-0.291C373.073,174.16,376.463,172.411,379.332,170.044z"/>
		</g>
		<g style="opacity:0.51;">
			<path style="fill:#490A17;" d="M387.615,174.714c-0.068,1.83,0.157,3.66,0.582,5.425c0.416,1.768,1.057,3.481,1.94,5.052
				c0.876,1.585,2.017,2.967,3.309,4.238c1.335,1.292,2.523,2.744,3.541,4.308c2.054,3.123,3.369,6.729,3.882,10.45
				c0.255,1.863,0.273,3.751,0.15,5.625c-0.133,1.878-0.503,3.724-0.958,5.546l-0.191,0.765l-0.8-0.215
				c-2.377-0.639-4.792-1.141-7.174-1.152c-1.193-0.03-2.358,0.145-3.473,0.441c-1.114,0.313-2.14,0.845-3.084,1.503
				c-1.86,1.375-3.246,3.378-4.327,5.528c-1.061,2.162-1.917,4.501-2.525,6.844c-0.577,2.348-0.836,4.753-0.496,7.075
				c0.313,2.326,1.263,4.531,2.573,6.541c2.691,4.01,6.476,7.324,10.281,10.501l0.545,0.455l-0.296,0.622
				c-2.181,4.58-4.658,9.054-7.73,13.137c-3.08,4.059-6.759,7.745-11.12,10.457c-0.519,0.377-1.101,0.653-1.669,0.951l-1.705,0.887
				c-1.17,0.517-2.378,0.956-3.572,1.407c-1.241,0.31-2.464,0.7-3.721,0.913l-1.894,0.268c-0.63,0.091-1.259,0.194-1.897,0.19
				c-5.083,0.327-10.151-0.438-14.982-1.833c4.91,1.079,9.958,1.64,14.917,1.098c4.947-0.526,9.753-2.168,13.856-4.927
				c4.127-2.723,7.58-6.368,10.465-10.388c2.906-4.017,5.323-8.392,7.416-12.917l0.249,1.078c-3.887-3.199-7.797-6.518-10.76-10.835
				c-1.436-2.167-2.575-4.662-2.922-7.324c-0.366-2.656-0.039-5.324,0.6-7.827c0.675-2.501,1.57-4.887,2.733-7.213
				c1.181-2.293,2.727-4.533,4.931-6.135c1.115-0.769,2.347-1.387,3.654-1.742c1.303-0.338,2.645-0.516,3.959-0.474
				c2.638,0.033,5.175,0.595,7.607,1.334l-0.991,0.55c0.476-1.717,0.876-3.462,1.048-5.238c0.164-1.773,0.195-3.563,0-5.337
				c-0.394-3.542-1.55-7.014-3.444-10.065c-0.935-1.529-2.002-2.991-3.248-4.297c-1.262-1.351-2.407-2.868-3.232-4.532
				C387.976,182.129,387.299,178.361,387.615,174.714z"/>
		</g>
		<g>
			<path style="fill:#FFF0D7;" d="M325.229,275.693c0.82-3.651,1.768-7.266,2.715-10.881l0.117-0.447l0.441,0.19
				c2.83,1.221,5.641,2.484,8.447,3.757c2.802,1.284,5.596,2.584,8.376,3.915l0.451,0.216l-0.277,0.393l-3.323,4.723l-1.695,2.339
				c-0.565,0.78-1.135,1.556-1.719,2.323c0.481-0.835,0.976-1.662,1.476-2.485l1.5-2.469l3.066-4.893l0.174,0.609
				c-2.826-1.23-5.638-2.49-8.443-3.767c-2.8-1.287-5.595-2.585-8.371-3.924l0.558-0.257
				C327.601,268.602,326.479,272.166,325.229,275.693z"/>
		</g>
		<path style="opacity:0.51;fill:none;stroke:#490A17;stroke-width:0.5122;stroke-miterlimit:10;" d="M427.282,86.51
			c0,0,5.355-11.487,4.175-15.728"/>
		<path style="opacity:0.51;fill:none;stroke:#490A17;stroke-width:0.5122;stroke-miterlimit:10;" d="M435.3,60.806
			c0,0,6.041,3.533,1.232,12.421"/>
	</g>
	<polygon style="fill:#E06457;" points="437.628,218.743 432.428,199.336 451.835,204.536 	"/>
	<polygon style="fill:#EBAE59;" points="374.442,83.539 377.751,90.245 385.151,91.32 379.797,96.539 381.061,103.91 
		374.442,100.43 367.823,103.91 369.087,96.539 363.732,91.32 371.132,90.245 	"/>
	<polygon style="fill:#EBAE59;" points="333.273,409.634 336.583,416.34 343.983,417.415 338.628,422.635 339.892,430.005 
		333.273,426.525 326.655,430.005 327.919,422.635 322.564,417.415 329.964,416.34 	"/>
	<path style="fill:#EBAE59;" d="M88.919,104.848c1.872,0.669,2.848,2.729,2.18,4.601l0,0c-0.669,1.873-2.729,2.849-4.601,2.18
		l-10.063-3.593c-1.873-0.669-2.849-2.729-2.18-4.601l0,0c0.669-1.873,2.729-2.848,4.601-2.18L88.919,104.848z"/>
	<polygon style="fill:#490C28;" points="351.901,409.603 358.252,395.272 367.487,407.937 	"/>
	<path style="fill:#490C28;" d="M178.738,413.289c0,3.473-2.815,6.289-6.288,6.289c-3.473,0-6.288-2.816-6.288-6.289
		s2.815-6.288,6.288-6.288C175.922,407,178.738,409.816,178.738,413.289z"/>
	<path style="fill:#E5DEC1;" d="M0,334.558c0,0,42.318,2.774,28.816,72.132s23.716,75.303,99.731,70.348
		C204.562,472.084,205.034,500,205.034,500H0V334.558z"/>
	<path style="fill:none;stroke:#E5DEC1;stroke-miterlimit:10;" d="M0,322.467c0,0,45.233,2.977,30.801,77.403
		c-14.432,74.427,25.35,80.806,106.601,75.49c81.251-5.316,81.756,24.64,81.756,24.64"/>
	<path style="fill:#E5DEC1;" d="M341.199,500c0,0-8.993-26.68,37.529-23.646c46.521,3.034,106.736-0.718,101.344-45.87
		C474.679,385.333,500,378.92,500,378.92V500H341.199z"/>
	<path style="fill:none;stroke:#E5DEC1;stroke-miterlimit:10;" d="M330.119,500c0,0-9.62-29.949,40.147-26.543
		c49.767,3.406,114.184-0.806,108.415-51.49C472.912,371.284,500,364.084,500,364.084"/>
	<path style="fill:#E5DEC1;" d="M240.984,0c0,0-4.017,45.039-122.501,37.112C26.213,29.186-3.511,35.64,12.342,114.156
		C28.195,192.672,0,202.809,0,202.809V0H240.984z"/>
	<path style="fill:none;stroke:#E5DEC1;stroke-miterlimit:10;" d="M249.168,0c0,0-4.154,45.736-126.661,37.687
		C27.103,29.637-3.631,36.191,12.761,115.922C29.152,195.653,0,205.947,0,205.947"/>
	<path style="fill:#E5DEC1;" d="M359.403,0c0,0,2.504,22.383,74.702,24.213c51.882,0.915,59.27,35.836,51.882,64.137
		C478.6,116.651,500,121.047,500,121.047V0H359.403z"/>
	<path style="fill:none;stroke:#E5DEC1;stroke-miterlimit:10;" d="M347.376,0c0,0,2.718,23.476,81.092,25.396
		c56.321,0.96,64.34,37.585,56.321,67.269C476.769,122.348,500,126.958,500,126.958"/>
</g>
<g id="TEXTS">
	<path id="SVGID_x5F_00000025410371888131569030000017099056960802234271_x5F_" style="fill:none;" d="M348.545,260.636
		c0,50.946-41.3,92.246-92.246,92.246s-92.246-41.3-92.246-92.246s41.3-92.246,92.246-92.246S348.545,209.689,348.545,260.636z"/>
	<text>	<textPath  xlink:href="#SVGID_x5F_00000025410371888131569030000017099056960802234271_x5F_" startOffset="12464.625%">
<tspan  style="fill:#EBAE59; font-family:'BowlbyOne'; font-size:34.8344px;">WORLD</tspan>	</textPath>
</text>
	<path id="SVGID_x5F_00000011752119492277464480000003221970412442073764_x5F_" style="fill:none;" d="M373.812,259.841
		c0-64.523-52.417-116.829-117.077-116.829s-117.077,52.306-117.077,116.829c0,64.523,52.417,116.829,117.077,116.829
		S373.812,324.364,373.812,259.841z"/>
	<text>	<textPath  xlink:href="#SVGID_x5F_00000011752119492277464480000003221970412442073764_x5F_" startOffset="56.5267%">
<tspan  style="fill:#FCF6DB; font-family:'BowlbyOne'; font-size:34.6683px;">MUSIC</tspan><tspan  style="fill:#EBAE59; font-family:'BowlbyOne'; font-size:34.6683px;"> DAY</tspan>	</textPath>
</text>
</g>
</svg>
