<?xml version="1.0" encoding="utf-8"?>
<!-- Generator: Adobe Illustrator 27.5.0, SVG Export Plug-In . SVG Version: 6.00 Build 0)  -->
<svg version="1.1" xmlns="http://www.w3.org/2000/svg" xmlns:xlink="http://www.w3.org/1999/xlink" x="0px" y="0px"
	 viewBox="0 0 500 500" style="enable-background:new 0 0 500 500;" xml:space="preserve">
<g id="BACKGROUND">
	<rect style="fill:#FFFFFF;" width="500" height="500"/>
</g>
<g id="OBJECTS">
	<g id="WA_Logotype">
		<g>
			<path style="fill:#455A64;" d="M161.121,353.803h-0.105l-6.485-26.162h-7.815l-6.592,25.842h-0.106l-6.007-25.842h-8.345
				l10.046,37.965h8.453l6.324-25.842h0.107l6.432,25.842h8.293l10.206-37.965h-8.186L161.121,353.803z M200.988,340.481
				c-0.743-0.974-1.763-1.736-3.054-2.286c-1.295-0.547-2.952-0.823-4.971-0.823c-1.418,0-2.87,0.364-4.36,1.09
				c-1.488,0.726-2.711,1.888-3.667,3.484h-0.16V327.64h-7.548v37.965h7.548v-14.41c0-2.798,0.46-4.811,1.383-6.034
				c0.921-1.223,2.409-1.835,4.465-1.835c1.807,0,3.065,0.559,3.774,1.677c0.709,1.116,1.063,2.81,1.063,5.078v15.525h7.549v-16.908
				c0-1.7-0.152-3.251-0.452-4.654C202.256,342.646,201.733,341.457,200.988,340.481z M232.085,359.491v-14.303
				c0-1.668-0.37-3.006-1.117-4.015c-0.743-1.011-1.7-1.799-2.868-2.366c-1.171-0.567-2.466-0.949-3.883-1.143
				c-1.416-0.194-2.817-0.292-4.198-0.292c-1.523,0-3.04,0.15-4.544,0.453c-1.51,0.3-2.863,0.806-4.068,1.514
				c-1.205,0.709-2.2,1.649-2.975,2.819c-0.782,1.168-1.225,2.64-1.33,4.413h7.547c0.142-1.489,0.64-2.553,1.491-3.191
				c0.85-0.637,2.018-0.956,3.508-0.956c0.672,0,1.3,0.045,1.886,0.133c0.584,0.09,1.098,0.265,1.542,0.531
				c0.443,0.267,0.797,0.638,1.062,1.117c0.266,0.479,0.399,1.126,0.399,1.939c0.035,0.783-0.196,1.373-0.69,1.782
				c-0.498,0.408-1.17,0.72-2.021,0.93c-0.851,0.215-1.825,0.375-2.924,0.478c-1.099,0.108-2.215,0.253-3.347,0.429
				c-1.135,0.177-2.261,0.415-3.375,0.717c-1.117,0.301-2.112,0.755-2.979,1.354c-0.869,0.605-1.577,1.41-2.128,2.422
				c-0.548,1.011-0.822,2.297-0.822,3.855c0,1.418,0.239,2.64,0.718,3.667c0.478,1.031,1.142,1.879,1.994,2.553
				c0.851,0.674,1.842,1.171,2.976,1.491c1.132,0.318,2.356,0.477,3.668,0.477c1.701,0,3.367-0.249,4.995-0.742
				c1.631-0.5,3.05-1.365,4.255-2.608c0.035,0.461,0.097,0.915,0.185,1.356c0.089,0.443,0.205,0.879,0.346,1.302h7.656
				c-0.354-0.564-0.604-1.415-0.744-2.552C232.156,361.921,232.085,360.734,232.085,359.491z M224.537,354.969
				c0,0.429-0.043,0.996-0.133,1.704c-0.088,0.71-0.327,1.407-0.717,2.099c-0.39,0.691-0.995,1.288-1.807,1.781
				c-0.815,0.499-1.966,0.747-3.457,0.747c-0.601,0-1.187-0.055-1.753-0.162c-0.568-0.105-1.063-0.293-1.488-0.558
				c-0.425-0.266-0.762-0.629-1.011-1.089c-0.247-0.461-0.372-1.027-0.372-1.701c0-0.709,0.126-1.296,0.372-1.756
				c0.248-0.459,0.577-0.84,0.985-1.143c0.406-0.3,0.885-0.539,1.434-0.719c0.549-0.177,1.106-0.317,1.675-0.425
				c0.601-0.104,1.205-0.196,1.806-0.266c0.605-0.068,1.18-0.159,1.728-0.265c0.551-0.106,1.063-0.241,1.543-0.4
				c0.479-0.16,0.876-0.379,1.195-0.663V354.969z M246.173,329.874h-7.55v8.241h-4.569v5.052h4.569v16.219
				c0,1.384,0.233,2.5,0.692,3.349c0.462,0.849,1.09,1.509,1.886,1.968c0.798,0.461,1.72,0.77,2.765,0.93
				c1.043,0.159,2.155,0.239,3.322,0.239c0.747,0,1.507-0.018,2.288-0.051c0.778-0.036,1.486-0.105,2.125-0.215v-5.85
				c-0.356,0.073-0.727,0.128-1.118,0.161c-0.388,0.036-0.797,0.055-1.222,0.055c-1.274,0-2.126-0.216-2.552-0.64
				c-0.423-0.424-0.636-1.275-0.636-2.553v-13.612h5.529v-5.052h-5.529V329.874z M277.374,353.563
				c-0.496-0.867-1.152-1.595-1.966-2.182c-0.815-0.583-1.747-1.054-2.79-1.409c-1.047-0.352-2.119-0.652-3.218-0.901
				c-1.062-0.249-2.106-0.48-3.134-0.693s-1.942-0.452-2.74-0.717c-0.796-0.267-1.441-0.61-1.938-1.039
				c-0.498-0.424-0.743-0.973-0.743-1.647c0-0.568,0.138-1.02,0.424-1.357c0.284-0.335,0.63-0.592,1.038-0.772
				c0.408-0.175,0.857-0.29,1.354-0.345c0.496-0.051,0.958-0.078,1.382-0.078c1.348,0,2.517,0.256,3.511,0.77
				c0.989,0.514,1.54,1.498,1.645,2.95h7.176c-0.142-1.7-0.575-3.108-1.302-4.227c-0.725-1.116-1.64-2.012-2.737-2.685
				c-1.097-0.673-2.347-1.151-3.749-1.435c-1.4-0.283-2.843-0.425-4.329-0.425c-1.491,0-2.945,0.135-4.359,0.398
				c-1.421,0.266-2.696,0.729-3.829,1.384c-1.135,0.655-2.046,1.55-2.739,2.684c-0.692,1.135-1.037,2.589-1.037,4.36
				c0,1.206,0.25,2.226,0.747,3.059c0.492,0.834,1.151,1.524,1.963,2.074c0.818,0.548,1.748,0.994,2.793,1.327
				c1.045,0.34,2.118,0.63,3.214,0.88c2.696,0.567,4.796,1.133,6.301,1.702c1.506,0.566,2.259,1.418,2.259,2.552
				c0,0.674-0.158,1.229-0.478,1.673c-0.32,0.446-0.717,0.798-1.195,1.065c-0.481,0.266-1.013,0.462-1.595,0.585
				c-0.585,0.125-1.145,0.188-1.676,0.188c-0.744,0-1.462-0.09-2.151-0.267c-0.693-0.177-1.304-0.453-1.835-0.825
				c-0.531-0.371-0.968-0.849-1.304-1.435c-0.334-0.585-0.506-1.283-0.506-2.099h-7.175c0.072,1.843,0.487,3.376,1.252,4.599
				c0.759,1.223,1.732,2.206,2.922,2.952c1.187,0.743,2.544,1.276,4.069,1.595c1.521,0.318,3.081,0.477,4.673,0.477
				c1.56,0,3.093-0.151,4.601-0.449c1.506-0.303,2.843-0.826,4.013-1.572c1.172-0.743,2.116-1.726,2.845-2.951
				c0.724-1.224,1.087-2.739,1.087-4.548C278.117,355.501,277.87,354.431,277.374,353.563z M292.364,327.64l-14.351,37.965h8.399
				l2.975-8.454h14.195l2.868,8.454h8.667l-14.192-37.965H292.364z M291.568,350.931L296.512,337h0.106l4.785,13.931H291.568z
				 M341.216,341.837c-1.026-1.346-2.321-2.427-3.881-3.242c-1.56-0.817-3.419-1.223-5.579-1.223c-1.703,0-3.261,0.336-4.678,1.01
				c-1.421,0.673-2.588,1.755-3.508,3.243h-0.108v-3.51h-7.178v37.117h7.553v-13.027h0.102c0.921,1.348,2.102,2.366,3.538,3.055
				c1.432,0.691,3.001,1.038,4.703,1.038c2.021,0,3.783-0.391,5.289-1.17c1.507-0.779,2.765-1.826,3.775-3.138
				c1.011-1.312,1.761-2.816,2.261-4.518c0.493-1.702,0.743-3.475,0.743-5.317c0-1.95-0.251-3.819-0.743-5.61
				C343.003,344.755,342.244,343.186,341.216,341.837z M336.381,355.184c-0.215,1.065-0.579,1.994-1.091,2.791
				c-0.514,0.798-1.188,1.447-2.023,1.941c-0.83,0.497-1.868,0.746-3.108,0.746c-1.206,0-2.23-0.249-3.081-0.746
				c-0.852-0.494-1.533-1.143-2.048-1.941c-0.514-0.797-0.885-1.726-1.116-2.791c-0.231-1.062-0.344-2.145-0.344-3.24
				c0-1.138,0.103-2.237,0.315-3.298c0.216-1.064,0.577-2.003,1.092-2.821c0.51-0.813,1.186-1.479,2.021-1.991
				c0.831-0.514,1.865-0.773,3.108-0.773c1.203,0,2.226,0.259,3.056,0.773c0.833,0.513,1.517,1.184,2.047,2.019
				c0.53,0.834,0.911,1.783,1.142,2.845c0.232,1.065,0.344,2.146,0.344,3.246C336.695,353.039,336.592,354.122,336.381,355.184z
				 M373.588,346.544c-0.497-1.789-1.258-3.358-2.287-4.707c-1.028-1.346-2.319-2.427-3.878-3.242
				c-1.561-0.817-3.423-1.223-5.585-1.223c-1.699,0-3.259,0.336-4.676,1.01c-1.418,0.673-2.588,1.755-3.509,3.243h-0.104v-3.51
				h-7.178v37.117h7.547v-13.027h0.107c0.921,1.348,2.102,2.366,3.536,3.055c1.434,0.691,3.004,1.038,4.706,1.038
				c2.018,0,3.781-0.391,5.289-1.17c1.504-0.779,2.765-1.826,3.773-3.138c1.012-1.312,1.763-2.816,2.259-4.518
				c0.499-1.702,0.745-3.475,0.745-5.317C374.333,350.204,374.087,348.334,373.588,346.544z M366.465,355.184
				c-0.211,1.065-0.575,1.994-1.088,2.791c-0.516,0.798-1.189,1.447-2.022,1.941c-0.831,0.497-1.868,0.746-3.109,0.746
				c-1.206,0-2.234-0.249-3.083-0.746c-0.852-0.494-1.532-1.143-2.048-1.941c-0.511-0.797-0.885-1.726-1.116-2.791
				c-0.23-1.062-0.345-2.145-0.345-3.24c0-1.138,0.108-2.237,0.32-3.298c0.212-1.064,0.577-2.003,1.09-2.821
				c0.513-0.813,1.188-1.479,2.021-1.991c0.83-0.514,1.867-0.773,3.109-0.773c1.205,0,2.222,0.259,3.054,0.773
				c0.835,0.513,1.515,1.184,2.048,2.019c0.534,0.834,0.914,1.783,1.144,2.845c0.233,1.065,0.346,2.146,0.346,3.246
				C366.785,353.039,366.677,354.122,366.465,355.184z"/>
		</g>
	</g>
	<g>
		<linearGradient id="SVGID_1_" gradientUnits="userSpaceOnUse" x1="250" y1="285.2436" x2="250" y2="125.1655">
			<stop  offset="0" style="stop-color:#20B038"/>
			<stop  offset="1" style="stop-color:#60D66A"/>
		</linearGradient>
		<path style="fill-rule:evenodd;clip-rule:evenodd;fill:url(#SVGID_1_);" d="M303.436,285.244H196.564
			c-14.632,0-26.603-11.971-26.603-26.603V151.769c0-14.632,11.971-26.604,26.603-26.604h106.871
			c14.632,0,26.603,11.972,26.603,26.604V258.64C330.039,273.272,318.067,285.244,303.436,285.244z"/>
		<g>
			<path style="fill-rule:evenodd;clip-rule:evenodd;fill:#FFFFFF;" d="M304.575,203.801c0,29.36-23.989,53.167-53.581,53.167
				c-9.397,0-18.227-2.4-25.902-6.616l-29.668,9.428l9.67-28.525c-4.88-8.014-7.686-17.411-7.686-27.454
				c0-29.366,23.989-53.171,53.585-53.171C280.586,150.63,304.575,174.435,304.575,203.801L304.575,203.801z M250.994,159.098
				c-24.847,0-45.052,20.05-45.052,44.703c0,9.777,3.185,18.837,8.58,26.21l-5.626,16.598l17.309-5.5
				c7.111,4.666,15.633,7.39,24.788,7.39c24.836,0,45.047-20.052,45.047-44.699C296.042,179.148,275.831,159.098,250.994,159.098
				L250.994,159.098z M278.051,216.047c-0.332-0.544-1.208-0.87-2.516-1.522c-1.314-0.65-7.775-3.807-8.978-4.239
				c-1.202-0.434-2.085-0.652-2.955,0.65c-0.876,1.304-3.394,4.24-4.163,5.11c-0.764,0.872-1.528,0.978-2.842,0.326
				c-1.316-0.65-5.55-2.031-10.565-6.466c-3.902-3.46-6.538-7.722-7.309-9.026c-0.762-1.302-0.076-2.007,0.575-2.658
				c0.593-0.587,1.316-1.522,1.972-2.28c0.658-0.764,0.876-1.31,1.314-2.18c0.438-0.87,0.22-1.628-0.112-2.28
				c-0.326-0.65-2.955-7.064-4.051-9.676c-1.088-2.604-2.184-2.507-2.955-2.507c-0.764,0-2.182,0.227-2.182,0.227
				s-2.633,0.326-3.835,1.63c-1.202,1.302-4.595,4.459-4.595,10.867c0,6.413,4.703,12.613,5.359,13.477
				c0.658,0.872,9.084,14.461,22.438,19.679c13.354,5.217,13.354,3.476,15.763,3.256c2.404-0.212,7.769-3.15,8.865-6.194
				C278.378,219.197,278.378,216.587,278.051,216.047L278.051,216.047z M278.051,216.047"/>
		</g>
	</g>
</g>
<g id="DESIGNED_BY_FREEPIK">
	<g>
		<g id="XMLID_29_">
			<g id="XMLID_48_">
				<path id="XMLID_56_" style="fill:#1D262D;" d="M260.104,465.724c-0.432,0.443-0.803,0.931-1.108,1.453l-0.465-0.241
					c-0.067-0.298-0.349-0.503-0.659-0.466c-0.331,0.039-0.568,0.339-0.529,0.67c0.039,0.331,0.339,0.568,0.67,0.529
					c0.066-0.008,0.127-0.026,0.184-0.052l0.451,0.234c-0.251,0.554-0.433,1.139-0.539,1.744l0.746,0.132
					c0.23-1.306,0.85-2.507,1.792-3.473L260.104,465.724z"/>
				<path id="XMLID_55_" style="fill:#1D262D;" d="M265.592,463.422c-0.171,0-0.341,0.006-0.51,0.017l-0.074-0.626
					c0.188-0.149,0.296-0.389,0.266-0.645c-0.046-0.393-0.402-0.674-0.795-0.628c-0.393,0.046-0.674,0.402-0.628,0.795
					c0.03,0.254,0.189,0.461,0.404,0.564l0.074,0.624c-0.714,0.116-1.403,0.332-2.06,0.646l0.327,0.684
					c0.934-0.447,1.942-0.673,2.995-0.673c0.496,0,0.993,0.053,1.475,0.158l0.161-0.741
					C266.692,463.481,266.142,463.422,265.592,463.422z"/>
				<path id="XMLID_54_" style="fill:#1D262D;" d="M272.194,465.969c0.331-0.04,0.566-0.341,0.526-0.672
					c-0.04-0.331-0.341-0.566-0.672-0.526c-0.309,0.038-0.535,0.304-0.53,0.609l-0.416,0.363c-0.418-0.43-0.889-0.813-1.408-1.139
					l-0.404,0.641c1.134,0.715,2.021,1.726,2.563,2.925l0.69-0.313c-0.251-0.554-0.568-1.072-0.942-1.545l0.402-0.351
					C272.065,465.974,272.129,465.977,272.194,465.969z"/>
				<path id="XMLID_53_" style="fill:#1D262D;" d="M265.044,473.63c-0.386,0.023-0.775,0.035-1.157,0.035
					c-0.88,0-1.733-0.061-2.478-0.179c-0.39-0.062-0.846-0.155-1.27-0.292c1.046,1.861,3.069,3.125,5.388,3.125
					c2.855,0,5.262-1.916,5.95-4.504c-0.682,0.449-1.505,0.825-2.459,1.123C267.839,473.306,266.463,473.545,265.044,473.63z"/>
				<path id="XMLID_49_" style="fill:#1D262D;" d="M265.592,464.938c-3.352,0-6.08,2.666-6.08,5.944
					c0,0.426,0.046,0.849,0.137,1.261c0.673,0.483,2.706,0.89,5.348,0.731c2.879-0.173,5.297-0.957,6.672-2.159
					c-0.006-0.195-0.021-0.39-0.045-0.582C271.244,467.172,268.65,464.938,265.592,464.938z M263.432,471.453
					c-1.02,0-1.85-0.83-1.85-1.85c0-1.02,0.83-1.85,1.85-1.85c1.02,0,1.85,0.83,1.85,1.85
					C265.282,470.623,264.452,471.453,263.432,471.453z M268.17,470.545c-0.75,0-1.36-0.61-1.36-1.36c0-0.75,0.61-1.36,1.36-1.36
					c0.75,0,1.361,0.61,1.361,1.36C269.53,469.935,268.92,470.545,268.17,470.545z"/>
			</g>
			<path id="XMLID_46_" style="fill:#1D262D;" d="M281.595,466.805c-0.295-0.116-0.805-0.309-1.382-0.237
				c-0.551,0.069-0.844,0.34-0.844,1.007v0.866h2.228v1.717h-2.228v5.455h-1.932v-5.455h-1.34v-1.717h1.34v-0.888
				c0-1.68,0.896-2.783,2.568-2.783c0.643,0,1.157,0.122,1.59,0.308L281.595,466.805z"/>
			<path id="XMLID_44_" style="fill:#1D262D;" d="M286.298,470.137c-0.177-0.03-0.358-0.046-0.526-0.046
				c-0.895,0-1.51,0.548-1.51,1.613v3.908h-1.932v-7.172h1.873v0.785c0.451-0.673,1.14-0.977,2.021-0.977
				c0.414,0,0.848,0.128,1.094,0.337L286.298,470.137z"/>
			<path id="XMLID_41_" style="fill:#1D262D;" d="M293.965,472.015c0,0.222-0.015,0.489-0.037,0.651h-5.085
				c0.207,1.036,0.933,1.488,1.843,1.488c0.622,0,1.295-0.252,1.813-0.688l1.133,1.243c-0.814,0.748-1.85,1.088-3.057,1.088
				c-2.198,0-3.723-1.495-3.723-3.752c0-2.258,1.48-3.797,3.627-3.797C292.544,468.248,293.958,469.78,293.965,472.015z
				 M288.851,471.349h3.175c-0.177-0.918-0.733-1.436-1.562-1.436C289.554,469.913,289.021,470.461,288.851,471.349z"/>
			<path id="XMLID_38_" style="fill:#1D262D;" d="M301.618,472.015c0,0.222-0.015,0.489-0.037,0.651h-5.085
				c0.207,1.036,0.932,1.488,1.843,1.488c0.622,0,1.295-0.252,1.814-0.688l1.132,1.243c-0.814,0.748-1.85,1.088-3.057,1.088
				c-2.198,0-3.723-1.495-3.723-3.752c0-2.258,1.48-3.797,3.627-3.797C300.197,468.248,301.611,469.78,301.618,472.015z
				 M296.504,471.349h3.175c-0.178-0.918-0.733-1.436-1.562-1.436C297.207,469.913,296.674,470.461,296.504,471.349z"/>
			<path id="XMLID_35_" style="fill:#1D262D;" d="M309.964,472.023c0,2.154-1.495,3.775-3.471,3.775
				c-0.962,0-1.643-0.377-2.109-0.933v3.708h-1.924V468.44h1.887v0.792c0.466-0.585,1.155-0.984,2.139-0.984
				C308.469,468.248,309.964,469.869,309.964,472.023z M304.287,472.023c0,1.132,0.747,1.976,1.843,1.976
				c1.14,0,1.85-0.881,1.85-1.976c0-1.095-0.711-1.976-1.85-1.976C305.035,470.047,304.287,470.89,304.287,472.023z"/>
			<path id="XMLID_32_" style="fill:#1D262D;" d="M313.067,466.094c0,0.696-0.54,1.229-1.236,1.229
				c-0.696,0-1.229-0.533-1.229-1.229c0-0.696,0.533-1.243,1.229-1.243C312.527,464.851,313.067,465.398,313.067,466.094z
				 M312.809,475.612h-1.932v-7.172h1.932V475.612z"/>
			<path id="XMLID_30_" style="fill:#1D262D;" d="M316.032,470.994l2.702-2.554h2.368l-3.479,3.375l3.501,3.797h-2.376l-2.716-2.901
				v2.901H314.1v-10.658h1.932V470.994z"/>
		</g>
		<g>
			<path style="fill:#1D262D;" d="M184.412,475.547v-1.055c-0.527,0.718-1.391,1.23-2.387,1.23c-1.846,0-3.149-1.406-3.149-3.706
				c0-2.256,1.289-3.721,3.149-3.721c0.952,0,1.816,0.469,2.387,1.245v-3.765h1.099v9.77H184.412z M184.412,473.629v-3.208
				c-0.395-0.615-1.245-1.143-2.124-1.143c-1.421,0-2.27,1.172-2.27,2.739c0,1.567,0.85,2.724,2.27,2.724
				C183.168,474.742,184.017,474.244,184.412,473.629z"/>
			<path style="fill:#1D262D;" d="M186.932,472.003c0-2.051,1.465-3.706,3.486-3.706c2.139,0,3.398,1.67,3.398,3.794v0.279h-5.727
				c0.088,1.333,1.025,2.446,2.549,2.446c0.805,0,1.626-0.322,2.182-0.893l0.527,0.718c-0.703,0.703-1.655,1.084-2.812,1.084
				C188.44,475.723,186.932,474.215,186.932,472.003z M190.403,469.205c-1.509,0-2.256,1.274-2.314,2.358h4.643
				C192.718,470.509,192.015,469.205,190.403,469.205z"/>
			<path style="fill:#1D262D;" d="M194.607,474.61l0.571-0.791c0.469,0.542,1.362,1.011,2.329,1.011c1.084,0,1.67-0.513,1.67-1.216
				c0-1.714-4.38-0.659-4.38-3.281c0-1.098,0.952-2.036,2.636-2.036c1.201,0,2.051,0.454,2.622,1.025l-0.513,0.762
				c-0.424-0.513-1.201-0.894-2.109-0.894c-0.967,0-1.567,0.483-1.567,1.113c0,1.553,4.38,0.527,4.38,3.281
				c0,1.187-0.952,2.139-2.783,2.139C196.306,475.723,195.325,475.372,194.607,474.61z"/>
			<path style="fill:#1D262D;" d="M201.477,466.729c0-0.41,0.337-0.747,0.732-0.747c0.41,0,0.747,0.337,0.747,0.747
				c0,0.41-0.337,0.732-0.747,0.732C201.814,467.462,201.477,467.14,201.477,466.729z M201.667,475.547v-7.075h1.099v7.075H201.667z
				"/>
			<path style="fill:#1D262D;" d="M204.582,477.364l0.556-0.82c0.586,0.703,1.289,0.967,2.3,0.967c1.172,0,2.27-0.571,2.27-2.124
				v-1.011c-0.513,0.718-1.377,1.26-2.373,1.26c-1.845,0-3.149-1.377-3.149-3.662c0-2.27,1.289-3.676,3.149-3.676
				c0.952,0,1.802,0.469,2.373,1.245v-1.069h1.098v6.87c0,2.344-1.641,3.076-3.369,3.076
				C206.237,478.418,205.417,478.184,204.582,477.364z M209.709,473.512v-3.091c-0.381-0.615-1.23-1.143-2.109-1.143
				c-1.421,0-2.27,1.128-2.27,2.695c0,1.553,0.849,2.695,2.27,2.695C208.478,474.669,209.328,474.127,209.709,473.512z"/>
			<path style="fill:#1D262D;" d="M217.413,475.547v-4.629c0-1.245-0.63-1.641-1.582-1.641c-0.865,0-1.685,0.527-2.095,1.099v5.17
				h-1.099v-7.075h1.099v1.025c0.498-0.586,1.465-1.201,2.519-1.201c1.48,0,2.256,0.747,2.256,2.285v4.966H217.413z"/>
			<path style="fill:#1D262D;" d="M219.932,472.003c0-2.051,1.465-3.706,3.486-3.706c2.139,0,3.398,1.67,3.398,3.794v0.279h-5.727
				c0.088,1.333,1.025,2.446,2.549,2.446c0.806,0,1.626-0.322,2.183-0.893l0.527,0.718c-0.703,0.703-1.655,1.084-2.812,1.084
				C221.441,475.723,219.932,474.215,219.932,472.003z M223.404,469.205c-1.509,0-2.256,1.274-2.314,2.358h4.643
				C225.718,470.509,225.015,469.205,223.404,469.205z"/>
			<path style="fill:#1D262D;" d="M233.35,475.547v-1.055c-0.527,0.718-1.392,1.23-2.388,1.23c-1.846,0-3.149-1.406-3.149-3.706
				c0-2.256,1.289-3.721,3.149-3.721c0.952,0,1.817,0.469,2.388,1.245v-3.765h1.098v9.77H233.35z M233.35,473.629v-3.208
				c-0.396-0.615-1.245-1.143-2.124-1.143c-1.421,0-2.27,1.172-2.27,2.739c0,1.567,0.849,2.724,2.27,2.724
				C232.105,474.742,232.954,474.244,233.35,473.629z"/>
			<path style="fill:#1D262D;" d="M239.692,475.547v-9.77h1.098v3.765c0.572-0.776,1.421-1.245,2.388-1.245
				c1.845,0,3.149,1.465,3.149,3.721c0,2.299-1.304,3.706-3.149,3.706c-0.996,0-1.86-0.513-2.388-1.23v1.055H239.692z
				 M242.9,474.742c1.436,0,2.285-1.157,2.285-2.724c0-1.567-0.85-2.739-2.285-2.739c-0.864,0-1.728,0.527-2.109,1.143v3.208
				C241.171,474.244,242.036,474.742,242.9,474.742z"/>
			<path style="fill:#1D262D;" d="M247.528,477.32c0.161,0.073,0.425,0.117,0.601,0.117c0.483,0,0.805-0.161,1.055-0.747
				l0.469-1.069l-2.959-7.148h1.187l2.358,5.801l2.344-5.801h1.201l-3.545,8.51c-0.425,1.025-1.143,1.421-2.08,1.435
				c-0.234,0-0.601-0.044-0.806-0.103L247.528,477.32z"/>
		</g>
	</g>
</g>
</svg>
